<mxfile host="65bd71144e">
    <diagram id="dF52ScKndV16ZpS6dUEl" name="ページ1">
        <mxGraphModel dx="1122" dy="727" grid="1" gridSize="10" guides="1" tooltips="1" connect="1" arrows="1" fold="1" page="1" pageScale="1" pageWidth="827" pageHeight="1169" math="0" shadow="1">
            <root>
                <mxCell id="0"/>
                <mxCell id="1" parent="0"/>
                <mxCell id="11" value="" style="rounded=0;whiteSpace=wrap;html=1;fillColor=#512DA8;strokeColor=#4C0099;" parent="1" vertex="1">
                    <mxGeometry x="40" y="42" width="760" height="70" as="geometry"/>
                </mxCell>
                <mxCell id="14" value="Phòng&amp;nbsp; Ban" style="text;html=1;resizable=0;autosize=1;align=center;verticalAlign=middle;points=[];fillColor=none;strokeColor=none;rounded=0;perimeterSpacing=1;strokeWidth=2;fontSize=16;" parent="1" vertex="1">
                    <mxGeometry x="402" y="70" width="100" height="20" as="geometry"/>
                </mxCell>
                <mxCell id="15" value="Bảng&amp;nbsp; Lương" style="text;html=1;resizable=0;autosize=1;align=center;verticalAlign=middle;points=[];fillColor=none;strokeColor=none;rounded=0;fontSize=16;" parent="1" vertex="1">
                    <mxGeometry x="527" y="70" width="110" height="20" as="geometry"/>
                </mxCell>
                <mxCell id="16" value="Nhân&amp;nbsp; Viên" style="text;html=1;resizable=0;autosize=1;align=center;verticalAlign=middle;points=[];fillColor=none;strokeColor=none;rounded=0;shadow=0;fontSize=16;" parent="1" vertex="1">
                    <mxGeometry x="282" y="70" width="90" height="20" as="geometry"/>
                </mxCell>
                <mxCell id="17" value="Logo" style="ellipse;shape=cloud;whiteSpace=wrap;html=1;fontSize=11;" parent="1" vertex="1">
                    <mxGeometry x="89" y="54.5" width="53" height="45" as="geometry"/>
                </mxCell>
                <mxCell id="19" value="" style="html=1;verticalLabelPosition=bottom;align=center;labelBackgroundColor=#ffffff;verticalAlign=top;strokeWidth=2;strokeColor=#0080F0;shadow=0;dashed=0;shape=mxgraph.ios7.icons.user;fontSize=11;" parent="1" vertex="1">
                    <mxGeometry x="260" y="67" width="25" height="22" as="geometry"/>
                </mxCell>
                <mxCell id="20" value="" style="html=1;verticalLabelPosition=bottom;align=center;labelBackgroundColor=#ffffff;verticalAlign=top;strokeWidth=2;strokeColor=#0080F0;shadow=0;dashed=0;shape=mxgraph.ios7.icons.credit_card;" parent="1" vertex="1">
                    <mxGeometry x="382" y="68" width="23" height="18" as="geometry"/>
                </mxCell>
                <mxCell id="22" value="" style="html=1;verticalLabelPosition=bottom;align=center;labelBackgroundColor=#ffffff;verticalAlign=top;strokeWidth=2;strokeColor=#0080F0;shadow=0;dashed=0;shape=mxgraph.ios7.icons.wallet;" parent="1" vertex="1">
                    <mxGeometry x="510" y="70" width="21" height="18" as="geometry"/>
                </mxCell>
                <mxCell id="93" value="" style="rounded=0;whiteSpace=wrap;html=1;shadow=0;fontSize=27;strokeWidth=2;labelBorderColor=none;fillColor=#D1C4E9;strokeColor=#D1C4E9;" parent="1" vertex="1">
                    <mxGeometry x="40" y="323" width="760" height="200" as="geometry"/>
                </mxCell>
                <mxCell id="96" value="&lt;b&gt;Our Address&lt;/b&gt;" style="text;html=1;resizable=0;autosize=1;align=center;verticalAlign=middle;points=[];fillColor=none;strokeColor=none;rounded=0;shadow=0;fontSize=16;" parent="1" vertex="1">
                    <mxGeometry x="181.5" y="347" width="110" height="20" as="geometry"/>
                </mxCell>
                <mxCell id="99" value="121, Clear Water Bay Road&lt;br style=&quot;font-size: 11px;&quot;&gt;Clear Water Bay, Kowloon&lt;br style=&quot;font-size: 11px;&quot;&gt;HONG KONG&lt;br style=&quot;font-size: 11px;&quot;&gt;" style="text;html=1;resizable=0;autosize=1;align=center;verticalAlign=middle;points=[];fillColor=none;strokeColor=none;rounded=0;shadow=0;fontSize=11;" parent="1" vertex="1">
                    <mxGeometry x="180.5" y="374" width="150" height="40" as="geometry"/>
                </mxCell>
                <mxCell id="100" value="+85212345678" style="text;html=1;resizable=0;autosize=1;align=center;verticalAlign=middle;points=[];fillColor=none;strokeColor=none;rounded=0;shadow=0;fontSize=13;" parent="1" vertex="1">
                    <mxGeometry x="201.5" y="414" width="100" height="20" as="geometry"/>
                </mxCell>
                <mxCell id="101" value="+85287654321" style="text;html=1;resizable=0;autosize=1;align=center;verticalAlign=middle;points=[];fillColor=none;strokeColor=none;rounded=0;shadow=0;fontSize=13;" parent="1" vertex="1">
                    <mxGeometry x="204.5" y="435" width="100" height="20" as="geometry"/>
                </mxCell>
                <mxCell id="102" value="&lt;u&gt;&lt;font color=&quot;#0000ff&quot;&gt;confusion@food.net&lt;/font&gt;&lt;/u&gt;" style="text;html=1;resizable=0;autosize=1;align=center;verticalAlign=middle;points=[];fillColor=none;strokeColor=none;rounded=0;shadow=0;fontSize=13;" parent="1" vertex="1">
                    <mxGeometry x="203.5" y="453" width="130" height="20" as="geometry"/>
                </mxCell>
                <mxCell id="105" value="" style="shape=mxgraph.signs.tech.cell_phone;html=1;pointerEvents=1;fillColor=#000000;strokeColor=none;verticalLabelPosition=bottom;verticalAlign=top;align=center;shadow=0;fontSize=13;" parent="1" vertex="1">
                    <mxGeometry x="189.5" y="414" width="12" height="18" as="geometry"/>
                </mxCell>
                <mxCell id="106" value="" style="verticalLabelPosition=bottom;aspect=fixed;html=1;verticalAlign=top;strokeColor=none;align=center;outlineConnect=0;shape=mxgraph.citrix.ip_phone;shadow=0;fontSize=13;" parent="1" vertex="1">
                    <mxGeometry x="185.84" y="441" width="18.59" height="9" as="geometry"/>
                </mxCell>
                <mxCell id="107" value="" style="shape=mxgraph.signs.tech.mail;html=1;pointerEvents=1;fillColor=#000000;strokeColor=none;verticalLabelPosition=bottom;verticalAlign=top;align=center;shadow=0;fontSize=13;" parent="1" vertex="1">
                    <mxGeometry x="130" y="830" width="24.34" as="geometry"/>
                </mxCell>
                <mxCell id="108" value="" style="shape=mxgraph.signs.tech.mail;html=1;pointerEvents=1;fillColor=#000000;strokeColor=none;verticalLabelPosition=bottom;verticalAlign=top;align=center;shadow=0;fontSize=16;" parent="1" vertex="1">
                    <mxGeometry x="188.5" y="459" width="16" height="11" as="geometry"/>
                </mxCell>
                <mxCell id="110" value="Copyright 2008 Ristorante Con Fusion" style="text;html=1;resizable=0;autosize=1;align=center;verticalAlign=middle;points=[];fillColor=none;strokeColor=none;rounded=0;shadow=0;fontSize=12;" parent="1" vertex="1">
                    <mxGeometry x="333.5" y="490" width="220" height="20" as="geometry"/>
                </mxCell>
                <mxCell id="111" value="" style="dashed=0;outlineConnect=0;html=1;align=center;labelPosition=center;verticalLabelPosition=bottom;verticalAlign=top;shape=mxgraph.webicons.facebook;fillColor=#6294E4;gradientColor=#1A2665;shadow=0;fontSize=12;strokeWidth=2;" parent="1" vertex="1">
                    <mxGeometry x="600" y="395" width="30" height="30" as="geometry"/>
                </mxCell>
                <mxCell id="112" value="" style="dashed=0;outlineConnect=0;html=1;align=center;labelPosition=center;verticalLabelPosition=bottom;verticalAlign=top;shape=mxgraph.weblogos.youtube;fillColor=#FF2626;gradientColor=#B5171F;shadow=0;fontSize=12;strokeWidth=2;" parent="1" vertex="1">
                    <mxGeometry x="696" y="395" width="30" height="30" as="geometry"/>
                </mxCell>
                <mxCell id="113" value="" style="dashed=0;outlineConnect=0;html=1;align=center;labelPosition=center;verticalLabelPosition=bottom;verticalAlign=top;shape=mxgraph.webicons.twitter;fillColor=#49EAF7;gradientColor=#137BD0;shadow=0;fontSize=12;strokeWidth=2;" parent="1" vertex="1">
                    <mxGeometry x="662" y="395" width="30" height="30" as="geometry"/>
                </mxCell>
                <mxCell id="114" value="" style="dashed=0;outlineConnect=0;html=1;align=center;labelPosition=center;verticalLabelPosition=bottom;verticalAlign=top;shape=mxgraph.webicons.gmail;gradientColor=#DFDEDE;shadow=0;fontSize=12;strokeWidth=2;" parent="1" vertex="1">
                    <mxGeometry x="726" y="395" width="30" height="30" as="geometry"/>
                </mxCell>
                <mxCell id="XM-U5igulPQv0cJ-muIu-134" value="" style="pointerEvents=1;shadow=0;dashed=0;html=1;strokeColor=none;fillColor=#505050;labelPosition=center;verticalLabelPosition=bottom;verticalAlign=top;outlineConnect=0;align=center;shape=mxgraph.office.concepts.home;fontSize=11;" parent="1" vertex="1">
                    <mxGeometry x="145" y="68" width="24" height="19" as="geometry"/>
                </mxCell>
                <mxCell id="XM-U5igulPQv0cJ-muIu-135" value="Trang chủ" style="text;html=1;resizable=0;autosize=1;align=center;verticalAlign=middle;points=[];fillColor=none;strokeColor=none;rounded=0;fontSize=16;fontColor=#FFFFFF;" parent="1" vertex="1">
                    <mxGeometry x="164" y="70" width="90" height="20" as="geometry"/>
                </mxCell>
                <mxCell id="7jRB3_iI8GtSvY0XlEra-136" value="" style="rounded=0;whiteSpace=wrap;html=1;fontSize=16;fontColor=#000000;fillColor=#9575CD;strokeColor=#9575CD;strokeWidth=2;" parent="1" vertex="1">
                    <mxGeometry x="40" y="113" width="760" height="207" as="geometry"/>
                </mxCell>
                <mxCell id="7jRB3_iI8GtSvY0XlEra-137" value="&lt;b&gt;&lt;font style=&quot;font-size: 32px&quot; face=&quot;Times New Roman&quot; color=&quot;#ffffff&quot;&gt;Ristorante con Fusion&lt;/font&gt;&lt;/b&gt;" style="text;html=1;resizable=0;autosize=1;align=center;verticalAlign=middle;points=[];rounded=0;fontSize=16;" parent="1" vertex="1">
                    <mxGeometry x="97" y="172" width="320" height="30" as="geometry"/>
                </mxCell>
                <mxCell id="7jRB3_iI8GtSvY0XlEra-138" value="&lt;font color=&quot;#ffffff&quot; style=&quot;font-size: 15px&quot;&gt;Our mission is to make your life more convenient&amp;nbsp;&lt;/font&gt;" style="text;html=1;resizable=0;autosize=1;align=center;verticalAlign=middle;points=[];fillColor=none;strokeColor=none;rounded=0;fontSize=16;fontColor=#000000;" parent="1" vertex="1">
                    <mxGeometry x="103" y="207" width="340" height="30" as="geometry"/>
                </mxCell>
                <mxCell id="7jRB3_iI8GtSvY0XlEra-139" value="" style="dashed=0;outlineConnect=0;html=1;align=center;labelPosition=center;verticalLabelPosition=bottom;verticalAlign=top;shape=mxgraph.weblogos.google_plus;fillColor=#DD4C40;strokeColor=none;fontSize=16;fontColor=#000000;" parent="1" vertex="1">
                    <mxGeometry x="568" y="395" width="30" height="30" as="geometry"/>
                </mxCell>
                <mxCell id="7jRB3_iI8GtSvY0XlEra-140" value="" style="dashed=0;outlineConnect=0;html=1;align=center;labelPosition=center;verticalLabelPosition=bottom;verticalAlign=top;shape=mxgraph.weblogos.linkedin;fillColor=#0095DB;gradientColor=#006391;fontSize=16;fontColor=#000000;strokeColor=#D1C4E9;strokeWidth=2;" parent="1" vertex="1">
                    <mxGeometry x="632" y="395" width="30" height="30" as="geometry"/>
                </mxCell>
            </root>
        </mxGraphModel>
    </diagram>
    <diagram id="R3ZDaFHYd-Sj4BeZqTP8" name="ページ2">
        <mxGraphModel dx="1122" dy="727" grid="1" gridSize="10" guides="1" tooltips="1" connect="1" arrows="1" fold="1" page="1" pageScale="1" pageWidth="827" pageHeight="1169" math="0" shadow="0">
            <root>
                <mxCell id="3ymm1KUvXjA_dZ-gHH70-0"/>
                <mxCell id="3ymm1KUvXjA_dZ-gHH70-1" parent="3ymm1KUvXjA_dZ-gHH70-0"/>
                <mxCell id="eOVhsvm7rY1pQQybPMU8-0" value="" style="whiteSpace=wrap;html=1;fillColor=#512DA8;strokeColor=#4C0099;" parent="3ymm1KUvXjA_dZ-gHH70-1" vertex="1">
                    <mxGeometry x="40" y="42" width="760" height="70" as="geometry"/>
                </mxCell>
                <mxCell id="eOVhsvm7rY1pQQybPMU8-1" value="Phòng&amp;nbsp; Ban" style="text;html=1;resizable=0;autosize=1;align=center;verticalAlign=middle;points=[];fillColor=none;strokeColor=none;perimeterSpacing=1;strokeWidth=2;fontSize=16;" parent="3ymm1KUvXjA_dZ-gHH70-1" vertex="1">
                    <mxGeometry x="402" y="70" width="100" height="20" as="geometry"/>
                </mxCell>
                <mxCell id="eOVhsvm7rY1pQQybPMU8-2" value="Bảng&amp;nbsp; Lương" style="text;html=1;resizable=0;autosize=1;align=center;verticalAlign=middle;points=[];fillColor=none;strokeColor=none;fontSize=16;" parent="3ymm1KUvXjA_dZ-gHH70-1" vertex="1">
                    <mxGeometry x="527" y="70" width="110" height="20" as="geometry"/>
                </mxCell>
                <mxCell id="eOVhsvm7rY1pQQybPMU8-3" value="Nhân&amp;nbsp; Viên" style="text;html=1;resizable=0;autosize=1;align=center;verticalAlign=middle;points=[];fillColor=none;strokeColor=none;shadow=0;fontSize=16;fontColor=#FFFFFF;" parent="3ymm1KUvXjA_dZ-gHH70-1" vertex="1">
                    <mxGeometry x="282" y="70" width="90" height="20" as="geometry"/>
                </mxCell>
                <mxCell id="eOVhsvm7rY1pQQybPMU8-4" value="Logo" style="ellipse;shape=cloud;whiteSpace=wrap;html=1;fontSize=11;" parent="3ymm1KUvXjA_dZ-gHH70-1" vertex="1">
                    <mxGeometry x="89" y="54.5" width="53" height="45" as="geometry"/>
                </mxCell>
                <mxCell id="eOVhsvm7rY1pQQybPMU8-5" value="" style="html=1;verticalLabelPosition=bottom;align=center;labelBackgroundColor=#ffffff;verticalAlign=top;strokeWidth=2;strokeColor=#0080F0;shadow=0;dashed=0;shape=mxgraph.ios7.icons.user;fontSize=11;" parent="3ymm1KUvXjA_dZ-gHH70-1" vertex="1">
                    <mxGeometry x="260" y="67" width="25" height="22" as="geometry"/>
                </mxCell>
                <mxCell id="eOVhsvm7rY1pQQybPMU8-6" value="" style="html=1;verticalLabelPosition=bottom;align=center;labelBackgroundColor=#ffffff;verticalAlign=top;strokeWidth=2;strokeColor=#0080F0;shadow=0;dashed=0;shape=mxgraph.ios7.icons.credit_card;" parent="3ymm1KUvXjA_dZ-gHH70-1" vertex="1">
                    <mxGeometry x="382" y="68" width="23" height="18" as="geometry"/>
                </mxCell>
                <mxCell id="eOVhsvm7rY1pQQybPMU8-7" value="" style="html=1;verticalLabelPosition=bottom;align=center;labelBackgroundColor=#ffffff;verticalAlign=top;strokeWidth=2;strokeColor=#0080F0;shadow=0;dashed=0;shape=mxgraph.ios7.icons.wallet;" parent="3ymm1KUvXjA_dZ-gHH70-1" vertex="1">
                    <mxGeometry x="510" y="70" width="21" height="18" as="geometry"/>
                </mxCell>
                <mxCell id="eOVhsvm7rY1pQQybPMU8-8" value="" style="whiteSpace=wrap;html=1;shadow=0;fontSize=27;strokeWidth=2;labelBorderColor=none;fillColor=#D1C4E9;strokeColor=#D1C4E9;spacingBottom=-1;" parent="3ymm1KUvXjA_dZ-gHH70-1" vertex="1">
                    <mxGeometry x="40" y="560" width="760" height="200" as="geometry"/>
                </mxCell>
                <mxCell id="eOVhsvm7rY1pQQybPMU8-9" value="&lt;b&gt;Our Address&lt;/b&gt;" style="text;html=1;resizable=0;autosize=1;align=center;verticalAlign=middle;points=[];fillColor=none;strokeColor=none;shadow=0;fontSize=16;" parent="3ymm1KUvXjA_dZ-gHH70-1" vertex="1">
                    <mxGeometry x="170" y="581" width="110" height="20" as="geometry"/>
                </mxCell>
                <mxCell id="eOVhsvm7rY1pQQybPMU8-10" value="121, Clear Water Bay Road&lt;br style=&quot;font-size: 11px;&quot;&gt;Clear Water Bay, Kowloon&lt;br style=&quot;font-size: 11px;&quot;&gt;HONG KONG&lt;br style=&quot;font-size: 11px;&quot;&gt;" style="text;html=1;resizable=0;autosize=1;align=center;verticalAlign=middle;points=[];fillColor=none;strokeColor=none;shadow=0;fontSize=11;" parent="3ymm1KUvXjA_dZ-gHH70-1" vertex="1">
                    <mxGeometry x="169" y="608" width="150" height="40" as="geometry"/>
                </mxCell>
                <mxCell id="eOVhsvm7rY1pQQybPMU8-11" value="+85212345678" style="text;html=1;resizable=0;autosize=1;align=center;verticalAlign=middle;points=[];fillColor=none;strokeColor=none;shadow=0;fontSize=13;" parent="3ymm1KUvXjA_dZ-gHH70-1" vertex="1">
                    <mxGeometry x="190" y="648" width="100" height="20" as="geometry"/>
                </mxCell>
                <mxCell id="eOVhsvm7rY1pQQybPMU8-12" value="+85287654321" style="text;html=1;resizable=0;autosize=1;align=center;verticalAlign=middle;points=[];fillColor=none;strokeColor=none;shadow=0;fontSize=13;" parent="3ymm1KUvXjA_dZ-gHH70-1" vertex="1">
                    <mxGeometry x="193" y="669" width="100" height="20" as="geometry"/>
                </mxCell>
                <mxCell id="eOVhsvm7rY1pQQybPMU8-13" value="&lt;u&gt;&lt;font color=&quot;#0000ff&quot;&gt;confusion@food.net&lt;/font&gt;&lt;/u&gt;" style="text;html=1;resizable=0;autosize=1;align=center;verticalAlign=middle;points=[];fillColor=none;strokeColor=none;shadow=0;fontSize=13;" parent="3ymm1KUvXjA_dZ-gHH70-1" vertex="1">
                    <mxGeometry x="192" y="687" width="130" height="20" as="geometry"/>
                </mxCell>
                <mxCell id="eOVhsvm7rY1pQQybPMU8-14" value="" style="shape=mxgraph.signs.tech.cell_phone;html=1;pointerEvents=1;fillColor=#000000;strokeColor=none;verticalLabelPosition=bottom;verticalAlign=top;align=center;shadow=0;fontSize=13;" parent="3ymm1KUvXjA_dZ-gHH70-1" vertex="1">
                    <mxGeometry x="178" y="651" width="12" height="18" as="geometry"/>
                </mxCell>
                <mxCell id="eOVhsvm7rY1pQQybPMU8-15" value="" style="verticalLabelPosition=bottom;aspect=fixed;html=1;verticalAlign=top;strokeColor=none;align=center;outlineConnect=0;shape=mxgraph.citrix.ip_phone;shadow=0;fontSize=13;" parent="3ymm1KUvXjA_dZ-gHH70-1" vertex="1">
                    <mxGeometry x="174.34" y="678" width="18.59" height="9" as="geometry"/>
                </mxCell>
                <mxCell id="eOVhsvm7rY1pQQybPMU8-16" value="" style="shape=mxgraph.signs.tech.mail;html=1;pointerEvents=1;fillColor=#000000;strokeColor=none;verticalLabelPosition=bottom;verticalAlign=top;align=center;shadow=0;fontSize=13;" parent="3ymm1KUvXjA_dZ-gHH70-1" vertex="1">
                    <mxGeometry x="130" y="830" width="24.34" as="geometry"/>
                </mxCell>
                <mxCell id="eOVhsvm7rY1pQQybPMU8-17" value="" style="shape=mxgraph.signs.tech.mail;html=1;pointerEvents=1;fillColor=#000000;strokeColor=none;verticalLabelPosition=bottom;verticalAlign=top;align=center;shadow=0;fontSize=16;" parent="3ymm1KUvXjA_dZ-gHH70-1" vertex="1">
                    <mxGeometry x="177" y="699" width="16" height="8" as="geometry"/>
                </mxCell>
                <mxCell id="eOVhsvm7rY1pQQybPMU8-18" value="Copyright 2008 Ristorante Con Fusion" style="text;html=1;resizable=0;autosize=1;align=center;verticalAlign=middle;points=[];fillColor=none;strokeColor=none;shadow=0;fontSize=12;" parent="3ymm1KUvXjA_dZ-gHH70-1" vertex="1">
                    <mxGeometry x="319" y="720" width="220" height="20" as="geometry"/>
                </mxCell>
                <mxCell id="eOVhsvm7rY1pQQybPMU8-19" value="" style="dashed=0;outlineConnect=0;html=1;align=center;labelPosition=center;verticalLabelPosition=bottom;verticalAlign=top;shape=mxgraph.webicons.facebook;fillColor=#6294E4;gradientColor=#1A2665;shadow=0;fontSize=12;strokeWidth=2;" parent="3ymm1KUvXjA_dZ-gHH70-1" vertex="1">
                    <mxGeometry x="622" y="638" width="30" height="30" as="geometry"/>
                </mxCell>
                <mxCell id="eOVhsvm7rY1pQQybPMU8-20" value="" style="dashed=0;outlineConnect=0;html=1;align=center;labelPosition=center;verticalLabelPosition=bottom;verticalAlign=top;shape=mxgraph.weblogos.youtube;fillColor=#FF2626;gradientColor=#B5171F;shadow=0;fontSize=12;strokeWidth=2;" parent="3ymm1KUvXjA_dZ-gHH70-1" vertex="1">
                    <mxGeometry x="718" y="638" width="30" height="30" as="geometry"/>
                </mxCell>
                <mxCell id="eOVhsvm7rY1pQQybPMU8-21" value="" style="dashed=0;outlineConnect=0;html=1;align=center;labelPosition=center;verticalLabelPosition=bottom;verticalAlign=top;shape=mxgraph.webicons.twitter;fillColor=#49EAF7;gradientColor=#137BD0;shadow=0;fontSize=12;strokeWidth=2;" parent="3ymm1KUvXjA_dZ-gHH70-1" vertex="1">
                    <mxGeometry x="684" y="638" width="30" height="30" as="geometry"/>
                </mxCell>
                <mxCell id="eOVhsvm7rY1pQQybPMU8-22" value="" style="dashed=0;outlineConnect=0;html=1;align=center;labelPosition=center;verticalLabelPosition=bottom;verticalAlign=top;shape=mxgraph.webicons.gmail;gradientColor=#DFDEDE;shadow=0;fontSize=12;strokeWidth=2;" parent="3ymm1KUvXjA_dZ-gHH70-1" vertex="1">
                    <mxGeometry x="748" y="638" width="30" height="30" as="geometry"/>
                </mxCell>
                <mxCell id="eOVhsvm7rY1pQQybPMU8-23" value="" style="pointerEvents=1;shadow=0;dashed=0;html=1;strokeColor=none;fillColor=#505050;labelPosition=center;verticalLabelPosition=bottom;verticalAlign=top;outlineConnect=0;align=center;shape=mxgraph.office.concepts.home;fontSize=11;" parent="3ymm1KUvXjA_dZ-gHH70-1" vertex="1">
                    <mxGeometry x="145" y="68" width="24" height="19" as="geometry"/>
                </mxCell>
                <mxCell id="eOVhsvm7rY1pQQybPMU8-24" value="Trang chủ" style="text;html=1;resizable=0;autosize=1;align=center;verticalAlign=middle;points=[];fillColor=none;strokeColor=none;fontSize=16;" parent="3ymm1KUvXjA_dZ-gHH70-1" vertex="1">
                    <mxGeometry x="164" y="70" width="90" height="20" as="geometry"/>
                </mxCell>
                <mxCell id="eOVhsvm7rY1pQQybPMU8-25" value="" style="whiteSpace=wrap;html=1;fontSize=16;fontColor=#000000;strokeWidth=2;fillColor=#A9D9EC;strokeColor=#A9D9EC;" parent="3ymm1KUvXjA_dZ-gHH70-1" vertex="1">
                    <mxGeometry x="40" y="113" width="760" height="447" as="geometry"/>
                </mxCell>
                <mxCell id="eOVhsvm7rY1pQQybPMU8-28" value="" style="dashed=0;outlineConnect=0;html=1;align=center;labelPosition=center;verticalLabelPosition=bottom;verticalAlign=top;shape=mxgraph.weblogos.google_plus;fillColor=#DD4C40;strokeColor=none;fontSize=16;fontColor=#000000;" parent="3ymm1KUvXjA_dZ-gHH70-1" vertex="1">
                    <mxGeometry x="590" y="638" width="30" height="30" as="geometry"/>
                </mxCell>
                <mxCell id="eOVhsvm7rY1pQQybPMU8-29" value="" style="dashed=0;outlineConnect=0;html=1;align=center;labelPosition=center;verticalLabelPosition=bottom;verticalAlign=top;shape=mxgraph.weblogos.linkedin;fillColor=#0095DB;gradientColor=#006391;fontSize=16;fontColor=#000000;strokeColor=#D1C4E9;strokeWidth=2;" parent="3ymm1KUvXjA_dZ-gHH70-1" vertex="1">
                    <mxGeometry x="654" y="638" width="30" height="30" as="geometry"/>
                </mxCell>
                <mxCell id="eOVhsvm7rY1pQQybPMU8-30" value="" style="whiteSpace=wrap;html=1;fontSize=16;strokeWidth=2;strokeColor=#FFFFFF;" parent="3ymm1KUvXjA_dZ-gHH70-1" vertex="1">
                    <mxGeometry x="61" y="113" width="145.5" height="37" as="geometry"/>
                </mxCell>
                <mxCell id="eOVhsvm7rY1pQQybPMU8-31" value="&lt;font style=&quot;font-size: 11px&quot; color=&quot;#0000ff&quot;&gt;Trang chủ&lt;/font&gt;&lt;font color=&quot;#000000&quot; style=&quot;font-size: 11px&quot;&gt; /&lt;/font&gt;&lt;font style=&quot;font-size: 11px&quot; color=&quot;#333333&quot;&gt; Nhân viên&lt;/font&gt;" style="text;html=1;resizable=0;autosize=1;align=center;verticalAlign=middle;points=[];fillColor=none;strokeColor=none;fontSize=16;fontColor=#FFFFFF;spacingBottom=1;" parent="3ymm1KUvXjA_dZ-gHH70-1" vertex="1">
                    <mxGeometry x="72" y="116.5" width="120" height="30" as="geometry"/>
                </mxCell>
                <mxCell id="eOVhsvm7rY1pQQybPMU8-32" value="&lt;font color=&quot;#000000&quot;&gt;Nhân Viên&lt;/font&gt;" style="text;html=1;resizable=0;autosize=1;align=center;verticalAlign=middle;points=[];fillColor=none;strokeColor=none;fontSize=16;fontColor=#FFFFFF;" parent="3ymm1KUvXjA_dZ-gHH70-1" vertex="1">
                    <mxGeometry x="75" y="160" width="90" height="20" as="geometry"/>
                </mxCell>
                <mxCell id="w1MAtq-aKO41CIsze2R--0" value="" style="endArrow=none;html=1;fontSize=27;fontColor=#333333;strokeColor=#808080;" parent="3ymm1KUvXjA_dZ-gHH70-1" edge="1">
                    <mxGeometry width="50" height="50" relative="1" as="geometry">
                        <mxPoint x="83" y="190" as="sourcePoint"/>
                        <mxPoint x="762" y="190" as="targetPoint"/>
                    </mxGeometry>
                </mxCell>
                <mxCell id="27KwWWOBrZR6PxvlR3MN-0" value="" style="html=1;shadow=0;dashed=0;shape=mxgraph.bootstrap.rrect;rSize=5;strokeColor=#DFDFDF;html=1;whiteSpace=wrap;fillColor=#ffffff;fontColor=#000000;verticalAlign=bottom;align=left;spacing=20;spacingBottom=50;fontSize=14;" parent="3ymm1KUvXjA_dZ-gHH70-1" vertex="1">
                    <mxGeometry x="80" y="200" width="80" height="100" as="geometry"/>
                </mxCell>
                <mxCell id="27KwWWOBrZR6PxvlR3MN-1" value="Image cap" style="html=1;shadow=0;dashed=0;shape=mxgraph.bootstrap.topButton;rSize=5;perimeter=none;whiteSpace=wrap;fillColor=#868E96;strokeColor=#DFDFDF;fontColor=#DEE2E6;resizeWidth=1;fontSize=18;" parent="27KwWWOBrZR6PxvlR3MN-0" vertex="1">
                    <mxGeometry width="77.41935483870967" height="80" relative="1" as="geometry"/>
                </mxCell>
                <mxCell id="27KwWWOBrZR6PxvlR3MN-2" value="" style="html=1;shadow=0;dashed=0;shape=mxgraph.bootstrap.rrect;rSize=5;strokeColor=#DFDFDF;html=1;whiteSpace=wrap;fillColor=#ffffff;fontColor=#000000;verticalAlign=bottom;align=left;spacing=20;spacingBottom=50;fontSize=14;" parent="3ymm1KUvXjA_dZ-gHH70-1" vertex="1">
                    <mxGeometry x="201.5" y="200" width="80" height="100" as="geometry"/>
                </mxCell>
                <mxCell id="27KwWWOBrZR6PxvlR3MN-3" value="Image cap" style="html=1;shadow=0;dashed=0;shape=mxgraph.bootstrap.topButton;rSize=5;perimeter=none;whiteSpace=wrap;fillColor=#868E96;strokeColor=#DFDFDF;fontColor=#DEE2E6;resizeWidth=1;fontSize=18;" parent="27KwWWOBrZR6PxvlR3MN-2" vertex="1">
                    <mxGeometry width="77.41935483870967" height="80" relative="1" as="geometry"/>
                </mxCell>
                <mxCell id="27KwWWOBrZR6PxvlR3MN-4" value="" style="html=1;shadow=0;dashed=0;shape=mxgraph.bootstrap.rrect;rSize=5;strokeColor=#DFDFDF;html=1;whiteSpace=wrap;fillColor=#ffffff;fontColor=#000000;verticalAlign=bottom;align=left;spacing=20;spacingBottom=50;fontSize=14;" parent="3ymm1KUvXjA_dZ-gHH70-1" vertex="1">
                    <mxGeometry x="320" y="200" width="80" height="100" as="geometry"/>
                </mxCell>
                <mxCell id="27KwWWOBrZR6PxvlR3MN-5" value="Image cap" style="html=1;shadow=0;dashed=0;shape=mxgraph.bootstrap.topButton;rSize=5;perimeter=none;whiteSpace=wrap;fillColor=#868E96;strokeColor=#DFDFDF;fontColor=#DEE2E6;resizeWidth=1;fontSize=18;" parent="27KwWWOBrZR6PxvlR3MN-4" vertex="1">
                    <mxGeometry width="77.41935483870967" height="80" relative="1" as="geometry"/>
                </mxCell>
                <mxCell id="27KwWWOBrZR6PxvlR3MN-6" value="" style="html=1;shadow=0;dashed=0;shape=mxgraph.bootstrap.rrect;rSize=5;strokeColor=#DFDFDF;html=1;whiteSpace=wrap;fillColor=#ffffff;fontColor=#000000;verticalAlign=bottom;align=left;spacing=20;spacingBottom=50;fontSize=14;" parent="3ymm1KUvXjA_dZ-gHH70-1" vertex="1">
                    <mxGeometry x="440" y="200" width="80" height="100" as="geometry"/>
                </mxCell>
                <mxCell id="27KwWWOBrZR6PxvlR3MN-7" value="Image cap" style="html=1;shadow=0;dashed=0;shape=mxgraph.bootstrap.topButton;rSize=5;perimeter=none;whiteSpace=wrap;fillColor=#868E96;strokeColor=#DFDFDF;fontColor=#DEE2E6;resizeWidth=1;fontSize=18;" parent="27KwWWOBrZR6PxvlR3MN-6" vertex="1">
                    <mxGeometry width="77.41935483870967" height="80" relative="1" as="geometry"/>
                </mxCell>
                <mxCell id="27KwWWOBrZR6PxvlR3MN-8" value="" style="html=1;shadow=0;dashed=0;shape=mxgraph.bootstrap.rrect;rSize=5;strokeColor=#DFDFDF;html=1;whiteSpace=wrap;fillColor=#ffffff;fontColor=#000000;verticalAlign=bottom;align=left;spacing=20;spacingBottom=50;fontSize=14;" parent="3ymm1KUvXjA_dZ-gHH70-1" vertex="1">
                    <mxGeometry x="557" y="200" width="80" height="100" as="geometry"/>
                </mxCell>
                <mxCell id="27KwWWOBrZR6PxvlR3MN-9" value="Image cap" style="html=1;shadow=0;dashed=0;shape=mxgraph.bootstrap.topButton;rSize=5;perimeter=none;whiteSpace=wrap;fillColor=#868E96;strokeColor=#DFDFDF;fontColor=#DEE2E6;resizeWidth=1;fontSize=18;" parent="27KwWWOBrZR6PxvlR3MN-8" vertex="1">
                    <mxGeometry width="77.41935483870967" height="80" relative="1" as="geometry"/>
                </mxCell>
                <mxCell id="27KwWWOBrZR6PxvlR3MN-10" value="" style="html=1;shadow=0;dashed=0;shape=mxgraph.bootstrap.rrect;rSize=5;strokeColor=#DFDFDF;html=1;whiteSpace=wrap;fillColor=#ffffff;fontColor=#000000;verticalAlign=bottom;align=left;spacing=20;spacingBottom=50;fontSize=14;" parent="3ymm1KUvXjA_dZ-gHH70-1" vertex="1">
                    <mxGeometry x="680" y="200" width="80" height="100" as="geometry"/>
                </mxCell>
                <mxCell id="27KwWWOBrZR6PxvlR3MN-11" value="Image cap" style="html=1;shadow=0;dashed=0;shape=mxgraph.bootstrap.topButton;rSize=5;perimeter=none;whiteSpace=wrap;fillColor=#868E96;strokeColor=#DFDFDF;fontColor=#DEE2E6;resizeWidth=1;fontSize=18;" parent="27KwWWOBrZR6PxvlR3MN-10" vertex="1">
                    <mxGeometry width="77.41935483870967" height="80" relative="1" as="geometry"/>
                </mxCell>
                <mxCell id="WZ4uei8KsN9LvbLwDik0-0" value="" style="html=1;shadow=0;dashed=0;shape=mxgraph.bootstrap.rrect;rSize=5;strokeColor=#DFDFDF;html=1;whiteSpace=wrap;fillColor=#ffffff;fontColor=#000000;verticalAlign=bottom;align=left;spacing=20;spacingBottom=50;fontSize=14;" parent="3ymm1KUvXjA_dZ-gHH70-1" vertex="1">
                    <mxGeometry x="80" y="320" width="80" height="100" as="geometry"/>
                </mxCell>
                <mxCell id="WZ4uei8KsN9LvbLwDik0-1" value="Image cap" style="html=1;shadow=0;dashed=0;shape=mxgraph.bootstrap.topButton;rSize=5;perimeter=none;whiteSpace=wrap;fillColor=#868E96;strokeColor=#DFDFDF;fontColor=#DEE2E6;resizeWidth=1;fontSize=18;" parent="WZ4uei8KsN9LvbLwDik0-0" vertex="1">
                    <mxGeometry width="77.41935483870967" height="80" relative="1" as="geometry"/>
                </mxCell>
                <mxCell id="WZ4uei8KsN9LvbLwDik0-2" value="" style="html=1;shadow=0;dashed=0;shape=mxgraph.bootstrap.rrect;rSize=5;strokeColor=#DFDFDF;html=1;whiteSpace=wrap;fillColor=#ffffff;fontColor=#000000;verticalAlign=bottom;align=left;spacing=20;spacingBottom=50;fontSize=14;" parent="3ymm1KUvXjA_dZ-gHH70-1" vertex="1">
                    <mxGeometry x="203.5" y="320" width="80" height="100" as="geometry"/>
                </mxCell>
                <mxCell id="WZ4uei8KsN9LvbLwDik0-3" value="Image cap" style="html=1;shadow=0;dashed=0;shape=mxgraph.bootstrap.topButton;rSize=5;perimeter=none;whiteSpace=wrap;fillColor=#868E96;strokeColor=#DFDFDF;fontColor=#DEE2E6;resizeWidth=1;fontSize=18;" parent="WZ4uei8KsN9LvbLwDik0-2" vertex="1">
                    <mxGeometry width="77.41935483870967" height="80" relative="1" as="geometry"/>
                </mxCell>
                <mxCell id="WZ4uei8KsN9LvbLwDik0-4" value="" style="html=1;shadow=0;dashed=0;shape=mxgraph.bootstrap.rrect;rSize=5;strokeColor=#DFDFDF;html=1;whiteSpace=wrap;fillColor=#ffffff;fontColor=#000000;verticalAlign=bottom;align=left;spacing=20;spacingBottom=50;fontSize=14;" parent="3ymm1KUvXjA_dZ-gHH70-1" vertex="1">
                    <mxGeometry x="322" y="320" width="80" height="100" as="geometry"/>
                </mxCell>
                <mxCell id="WZ4uei8KsN9LvbLwDik0-5" value="Image cap" style="html=1;shadow=0;dashed=0;shape=mxgraph.bootstrap.topButton;rSize=5;perimeter=none;whiteSpace=wrap;fillColor=#868E96;strokeColor=#DFDFDF;fontColor=#DEE2E6;resizeWidth=1;fontSize=18;" parent="WZ4uei8KsN9LvbLwDik0-4" vertex="1">
                    <mxGeometry width="77.41935483870967" height="80" relative="1" as="geometry"/>
                </mxCell>
                <mxCell id="WZ4uei8KsN9LvbLwDik0-6" value="" style="html=1;shadow=0;dashed=0;shape=mxgraph.bootstrap.rrect;rSize=5;strokeColor=#DFDFDF;html=1;whiteSpace=wrap;fillColor=#ffffff;fontColor=#000000;verticalAlign=bottom;align=left;spacing=20;spacingBottom=50;fontSize=14;" parent="3ymm1KUvXjA_dZ-gHH70-1" vertex="1">
                    <mxGeometry x="440" y="320" width="80" height="100" as="geometry"/>
                </mxCell>
                <mxCell id="WZ4uei8KsN9LvbLwDik0-7" value="Image cap" style="html=1;shadow=0;dashed=0;shape=mxgraph.bootstrap.topButton;rSize=5;perimeter=none;whiteSpace=wrap;fillColor=#868E96;strokeColor=#DFDFDF;fontColor=#DEE2E6;resizeWidth=1;fontSize=18;" parent="WZ4uei8KsN9LvbLwDik0-6" vertex="1">
                    <mxGeometry width="77.41935483870967" height="80" relative="1" as="geometry"/>
                </mxCell>
                <mxCell id="WZ4uei8KsN9LvbLwDik0-8" value="" style="html=1;shadow=0;dashed=0;shape=mxgraph.bootstrap.rrect;rSize=5;strokeColor=#DFDFDF;html=1;whiteSpace=wrap;fillColor=#ffffff;fontColor=#000000;verticalAlign=bottom;align=left;spacing=20;spacingBottom=50;fontSize=14;" parent="3ymm1KUvXjA_dZ-gHH70-1" vertex="1">
                    <mxGeometry x="555" y="320" width="80" height="100" as="geometry"/>
                </mxCell>
                <mxCell id="WZ4uei8KsN9LvbLwDik0-9" value="Image cap" style="html=1;shadow=0;dashed=0;shape=mxgraph.bootstrap.topButton;rSize=5;perimeter=none;whiteSpace=wrap;fillColor=#868E96;strokeColor=#DFDFDF;fontColor=#DEE2E6;resizeWidth=1;fontSize=18;" parent="WZ4uei8KsN9LvbLwDik0-8" vertex="1">
                    <mxGeometry width="77.41935483870967" height="80" relative="1" as="geometry"/>
                </mxCell>
                <mxCell id="4LTd1a97U3RGjlvpKqDq-0" value="" style="html=1;shadow=0;dashed=0;shape=mxgraph.bootstrap.rrect;rSize=5;strokeColor=#DFDFDF;html=1;whiteSpace=wrap;fillColor=#ffffff;fontColor=#000000;verticalAlign=bottom;align=left;spacing=20;spacingBottom=50;fontSize=14;" parent="3ymm1KUvXjA_dZ-gHH70-1" vertex="1">
                    <mxGeometry x="84" y="440" width="80" height="100" as="geometry"/>
                </mxCell>
                <mxCell id="4LTd1a97U3RGjlvpKqDq-1" value="Image cap" style="html=1;shadow=0;dashed=0;shape=mxgraph.bootstrap.topButton;rSize=5;perimeter=none;whiteSpace=wrap;fillColor=#868E96;strokeColor=#DFDFDF;fontColor=#DEE2E6;resizeWidth=1;fontSize=18;" parent="4LTd1a97U3RGjlvpKqDq-0" vertex="1">
                    <mxGeometry width="77.41935483870967" height="80" relative="1" as="geometry"/>
                </mxCell>
                <mxCell id="4LTd1a97U3RGjlvpKqDq-2" value="" style="html=1;shadow=0;dashed=0;shape=mxgraph.bootstrap.rrect;rSize=5;strokeColor=#DFDFDF;html=1;whiteSpace=wrap;fillColor=#ffffff;fontColor=#000000;verticalAlign=bottom;align=left;spacing=20;spacingBottom=50;fontSize=14;" parent="3ymm1KUvXjA_dZ-gHH70-1" vertex="1">
                    <mxGeometry x="204.5" y="440" width="80" height="100" as="geometry"/>
                </mxCell>
                <mxCell id="4LTd1a97U3RGjlvpKqDq-3" value="Image cap" style="html=1;shadow=0;dashed=0;shape=mxgraph.bootstrap.topButton;rSize=5;perimeter=none;whiteSpace=wrap;fillColor=#868E96;strokeColor=#DFDFDF;fontColor=#DEE2E6;resizeWidth=1;fontSize=18;" parent="4LTd1a97U3RGjlvpKqDq-2" vertex="1">
                    <mxGeometry width="77.41935483870967" height="80" relative="1" as="geometry"/>
                </mxCell>
                <mxCell id="4LTd1a97U3RGjlvpKqDq-4" value="" style="html=1;shadow=0;dashed=0;shape=mxgraph.bootstrap.rrect;rSize=5;strokeColor=#DFDFDF;html=1;whiteSpace=wrap;fillColor=#ffffff;fontColor=#000000;verticalAlign=bottom;align=left;spacing=20;spacingBottom=50;fontSize=14;" parent="3ymm1KUvXjA_dZ-gHH70-1" vertex="1">
                    <mxGeometry x="325" y="440" width="80" height="100" as="geometry"/>
                </mxCell>
                <mxCell id="4LTd1a97U3RGjlvpKqDq-5" value="Image cap" style="html=1;shadow=0;dashed=0;shape=mxgraph.bootstrap.topButton;rSize=5;perimeter=none;whiteSpace=wrap;fillColor=#868E96;strokeColor=#DFDFDF;fontColor=#DEE2E6;resizeWidth=1;fontSize=18;" parent="4LTd1a97U3RGjlvpKqDq-4" vertex="1">
                    <mxGeometry width="77.41935483870967" height="80" relative="1" as="geometry"/>
                </mxCell>
                <mxCell id="4LTd1a97U3RGjlvpKqDq-8" value="" style="html=1;shadow=0;dashed=0;shape=mxgraph.bootstrap.rrect;rSize=5;strokeColor=#DFDFDF;html=1;whiteSpace=wrap;fillColor=#ffffff;fontColor=#000000;verticalAlign=bottom;align=left;spacing=20;spacingBottom=50;fontSize=14;" parent="3ymm1KUvXjA_dZ-gHH70-1" vertex="1">
                    <mxGeometry x="680" y="320" width="80" height="100" as="geometry"/>
                </mxCell>
                <mxCell id="4LTd1a97U3RGjlvpKqDq-9" value="Image cap" style="html=1;shadow=0;dashed=0;shape=mxgraph.bootstrap.topButton;rSize=5;perimeter=none;whiteSpace=wrap;fillColor=#868E96;strokeColor=#DFDFDF;fontColor=#DEE2E6;resizeWidth=1;fontSize=18;" parent="4LTd1a97U3RGjlvpKqDq-8" vertex="1">
                    <mxGeometry width="77.41935483870967" height="80" relative="1" as="geometry"/>
                </mxCell>
                <mxCell id="cZZ-yPk5c4cXPWs2yyc_-0" value="" style="rounded=1;whiteSpace=wrap;html=1;shadow=0;fontSize=12;strokeWidth=2;" parent="3ymm1KUvXjA_dZ-gHH70-1" vertex="1">
                    <mxGeometry x="940" y="60" width="600" height="210" as="geometry"/>
                </mxCell>
                <mxCell id="cZZ-yPk5c4cXPWs2yyc_-1" value="" style="html=1;shadow=0;dashed=0;shape=mxgraph.bootstrap.rrect;rSize=5;strokeColor=#DFDFDF;html=1;whiteSpace=wrap;fillColor=#ffffff;fontColor=#000000;verticalAlign=bottom;align=left;spacing=20;spacingBottom=50;fontSize=14;" parent="3ymm1KUvXjA_dZ-gHH70-1" vertex="1">
                    <mxGeometry x="1050" y="140" width="80" height="100" as="geometry"/>
                </mxCell>
                <mxCell id="cZZ-yPk5c4cXPWs2yyc_-2" value="Image cap" style="html=1;shadow=0;dashed=0;shape=mxgraph.bootstrap.topButton;rSize=5;perimeter=none;whiteSpace=wrap;fillColor=#868E96;strokeColor=#DFDFDF;fontColor=#DEE2E6;resizeWidth=1;fontSize=18;" parent="cZZ-yPk5c4cXPWs2yyc_-1" vertex="1">
                    <mxGeometry width="77.41935483870967" height="80" relative="1" as="geometry"/>
                </mxCell>
                <mxCell id="cZZ-yPk5c4cXPWs2yyc_-3" value="" style="html=1;shadow=0;dashed=0;shape=mxgraph.bootstrap.rrect;rSize=5;strokeColor=#DFDFDF;html=1;whiteSpace=wrap;fillColor=#ffffff;fontColor=#000000;verticalAlign=bottom;align=left;spacing=20;spacingBottom=50;fontSize=14;" parent="3ymm1KUvXjA_dZ-gHH70-1" vertex="1">
                    <mxGeometry x="1210" y="140" width="80" height="100" as="geometry"/>
                </mxCell>
                <mxCell id="cZZ-yPk5c4cXPWs2yyc_-4" value="Image cap" style="html=1;shadow=0;dashed=0;shape=mxgraph.bootstrap.topButton;rSize=5;perimeter=none;whiteSpace=wrap;fillColor=#868E96;strokeColor=#DFDFDF;fontColor=#DEE2E6;resizeWidth=1;fontSize=18;" parent="cZZ-yPk5c4cXPWs2yyc_-3" vertex="1">
                    <mxGeometry width="77.41935483870967" height="80" relative="1" as="geometry"/>
                </mxCell>
                <mxCell id="cZZ-yPk5c4cXPWs2yyc_-5" value="" style="html=1;shadow=0;dashed=0;shape=mxgraph.bootstrap.rrect;rSize=5;strokeColor=#DFDFDF;html=1;whiteSpace=wrap;fillColor=#ffffff;fontColor=#000000;verticalAlign=bottom;align=left;spacing=20;spacingBottom=50;fontSize=14;" parent="3ymm1KUvXjA_dZ-gHH70-1" vertex="1">
                    <mxGeometry x="1370" y="140" width="80" height="100" as="geometry"/>
                </mxCell>
                <mxCell id="cZZ-yPk5c4cXPWs2yyc_-6" value="Image cap" style="html=1;shadow=0;dashed=0;shape=mxgraph.bootstrap.topButton;rSize=5;perimeter=none;whiteSpace=wrap;fillColor=#868E96;strokeColor=#DFDFDF;fontColor=#DEE2E6;resizeWidth=1;fontSize=18;" parent="cZZ-yPk5c4cXPWs2yyc_-5" vertex="1">
                    <mxGeometry width="77.41935483870967" height="80" relative="1" as="geometry"/>
                </mxCell>
                <mxCell id="cZZ-yPk5c4cXPWs2yyc_-7" value="Tablet" style="text;html=1;resizable=0;autosize=1;align=center;verticalAlign=middle;points=[];fillColor=none;strokeColor=none;rounded=0;shadow=0;fontSize=30;" parent="3ymm1KUvXjA_dZ-gHH70-1" vertex="1">
                    <mxGeometry x="1200" y="73" width="100" height="40" as="geometry"/>
                </mxCell>
                <mxCell id="yOX9QJqk1lZOpiMrbC91-0" value="" style="rounded=1;whiteSpace=wrap;html=1;shadow=0;fontSize=30;strokeWidth=2;" parent="3ymm1KUvXjA_dZ-gHH70-1" vertex="1">
                    <mxGeometry x="960" y="480" width="420" height="200" as="geometry"/>
                </mxCell>
                <mxCell id="yOX9QJqk1lZOpiMrbC91-1" value="" style="html=1;shadow=0;dashed=0;shape=mxgraph.bootstrap.rrect;rSize=5;strokeColor=#DFDFDF;html=1;whiteSpace=wrap;fillColor=#ffffff;fontColor=#000000;verticalAlign=bottom;align=left;spacing=20;spacingBottom=50;fontSize=14;" parent="3ymm1KUvXjA_dZ-gHH70-1" vertex="1">
                    <mxGeometry x="1060" y="550" width="80" height="100" as="geometry"/>
                </mxCell>
                <mxCell id="yOX9QJqk1lZOpiMrbC91-2" value="Image cap" style="html=1;shadow=0;dashed=0;shape=mxgraph.bootstrap.topButton;rSize=5;perimeter=none;whiteSpace=wrap;fillColor=#868E96;strokeColor=#DFDFDF;fontColor=#DEE2E6;resizeWidth=1;fontSize=18;" parent="yOX9QJqk1lZOpiMrbC91-1" vertex="1">
                    <mxGeometry width="77.41935483870967" height="80" relative="1" as="geometry">
                        <mxPoint as="offset"/>
                    </mxGeometry>
                </mxCell>
                <mxCell id="yOX9QJqk1lZOpiMrbC91-3" value="" style="html=1;shadow=0;dashed=0;shape=mxgraph.bootstrap.rrect;rSize=5;strokeColor=#DFDFDF;html=1;whiteSpace=wrap;fillColor=#ffffff;fontColor=#000000;verticalAlign=bottom;align=left;spacing=20;spacingBottom=50;fontSize=14;" parent="3ymm1KUvXjA_dZ-gHH70-1" vertex="1">
                    <mxGeometry x="1220" y="550" width="80" height="100" as="geometry"/>
                </mxCell>
                <mxCell id="yOX9QJqk1lZOpiMrbC91-4" value="Image cap" style="html=1;shadow=0;dashed=0;shape=mxgraph.bootstrap.topButton;rSize=5;perimeter=none;whiteSpace=wrap;fillColor=#868E96;strokeColor=#DFDFDF;fontColor=#DEE2E6;resizeWidth=1;fontSize=18;" parent="yOX9QJqk1lZOpiMrbC91-3" vertex="1">
                    <mxGeometry width="77.41935483870967" height="80" relative="1" as="geometry">
                        <mxPoint as="offset"/>
                    </mxGeometry>
                </mxCell>
                <mxCell id="yOX9QJqk1lZOpiMrbC91-5" value="Mobile" style="text;html=1;resizable=0;autosize=1;align=center;verticalAlign=middle;points=[];fillColor=none;strokeColor=none;rounded=0;shadow=0;fontSize=30;" parent="3ymm1KUvXjA_dZ-gHH70-1" vertex="1">
                    <mxGeometry x="1130" y="490" width="100" height="40" as="geometry"/>
                </mxCell>
                <mxCell id="yOX9QJqk1lZOpiMrbC91-7" value="" style="endArrow=classic;startArrow=classic;html=1;fontColor=#333333;strokeColor=#808080;" parent="3ymm1KUvXjA_dZ-gHH70-1" edge="1">
                    <mxGeometry width="50" height="50" relative="1" as="geometry">
                        <mxPoint x="810" y="390" as="sourcePoint"/>
                        <mxPoint x="920" y="270" as="targetPoint"/>
                    </mxGeometry>
                </mxCell>
                <mxCell id="yOX9QJqk1lZOpiMrbC91-8" value="" style="endArrow=classic;startArrow=classic;html=1;fontColor=#333333;strokeColor=#808080;" parent="3ymm1KUvXjA_dZ-gHH70-1" target="yOX9QJqk1lZOpiMrbC91-0" edge="1">
                    <mxGeometry width="50" height="50" relative="1" as="geometry">
                        <mxPoint x="810" y="440" as="sourcePoint"/>
                        <mxPoint x="960" y="380" as="targetPoint"/>
                    </mxGeometry>
                </mxCell>
            </root>
        </mxGraphModel>
    </diagram>
    <diagram id="FTDaGmaHSZNQQONsvWfm" name="ページ3">
        <mxGraphModel dx="673" dy="436" grid="1" gridSize="10" guides="1" tooltips="1" connect="1" arrows="1" fold="1" page="1" pageScale="1" pageWidth="827" pageHeight="1169" math="0" shadow="0">
            <root>
                <mxCell id="WjFdQQCOTypt50ZB_agh-0"/>
                <mxCell id="WjFdQQCOTypt50ZB_agh-1" parent="WjFdQQCOTypt50ZB_agh-0"/>
                <mxCell id="fEfQI96myRlpj8SGZXUP-0" value="" style="whiteSpace=wrap;html=1;fillColor=#512DA8;strokeColor=#4C0099;" parent="WjFdQQCOTypt50ZB_agh-1" vertex="1">
                    <mxGeometry x="40" y="42" width="760" height="70" as="geometry"/>
                </mxCell>
                <mxCell id="fEfQI96myRlpj8SGZXUP-1" value="Phòng&amp;nbsp; Ban" style="text;html=1;resizable=0;autosize=1;align=center;verticalAlign=middle;points=[];fillColor=none;strokeColor=none;perimeterSpacing=1;strokeWidth=2;fontSize=16;" parent="WjFdQQCOTypt50ZB_agh-1" vertex="1">
                    <mxGeometry x="402" y="70" width="100" height="20" as="geometry"/>
                </mxCell>
                <mxCell id="fEfQI96myRlpj8SGZXUP-2" value="Bảng&amp;nbsp; Lương" style="text;html=1;resizable=0;autosize=1;align=center;verticalAlign=middle;points=[];fillColor=none;strokeColor=none;fontSize=16;" parent="WjFdQQCOTypt50ZB_agh-1" vertex="1">
                    <mxGeometry x="527" y="70" width="110" height="20" as="geometry"/>
                </mxCell>
                <mxCell id="fEfQI96myRlpj8SGZXUP-3" value="Nhân&amp;nbsp; Viên" style="text;html=1;resizable=0;autosize=1;align=center;verticalAlign=middle;points=[];fillColor=none;strokeColor=none;shadow=0;fontSize=16;fontColor=#FFFFFF;" parent="WjFdQQCOTypt50ZB_agh-1" vertex="1">
                    <mxGeometry x="282" y="70" width="90" height="20" as="geometry"/>
                </mxCell>
                <mxCell id="fEfQI96myRlpj8SGZXUP-4" value="Logo" style="ellipse;shape=cloud;whiteSpace=wrap;html=1;fontSize=11;" parent="WjFdQQCOTypt50ZB_agh-1" vertex="1">
                    <mxGeometry x="89" y="54.5" width="53" height="45" as="geometry"/>
                </mxCell>
                <mxCell id="fEfQI96myRlpj8SGZXUP-5" value="" style="html=1;verticalLabelPosition=bottom;align=center;labelBackgroundColor=#ffffff;verticalAlign=top;strokeWidth=2;strokeColor=#0080F0;shadow=0;dashed=0;shape=mxgraph.ios7.icons.user;fontSize=11;" parent="WjFdQQCOTypt50ZB_agh-1" vertex="1">
                    <mxGeometry x="260" y="67" width="25" height="22" as="geometry"/>
                </mxCell>
                <mxCell id="fEfQI96myRlpj8SGZXUP-6" value="" style="html=1;verticalLabelPosition=bottom;align=center;labelBackgroundColor=#ffffff;verticalAlign=top;strokeWidth=2;strokeColor=#0080F0;shadow=0;dashed=0;shape=mxgraph.ios7.icons.credit_card;" parent="WjFdQQCOTypt50ZB_agh-1" vertex="1">
                    <mxGeometry x="382" y="68" width="23" height="18" as="geometry"/>
                </mxCell>
                <mxCell id="fEfQI96myRlpj8SGZXUP-7" value="" style="html=1;verticalLabelPosition=bottom;align=center;labelBackgroundColor=#ffffff;verticalAlign=top;strokeWidth=2;strokeColor=#0080F0;shadow=0;dashed=0;shape=mxgraph.ios7.icons.wallet;" parent="WjFdQQCOTypt50ZB_agh-1" vertex="1">
                    <mxGeometry x="510" y="70" width="21" height="18" as="geometry"/>
                </mxCell>
                <mxCell id="fEfQI96myRlpj8SGZXUP-8" value="" style="whiteSpace=wrap;html=1;shadow=0;fontSize=27;strokeWidth=2;labelBorderColor=none;fillColor=#D1C4E9;strokeColor=#D1C4E9;spacingBottom=-1;" parent="WjFdQQCOTypt50ZB_agh-1" vertex="1">
                    <mxGeometry x="40" y="560" width="760" height="200" as="geometry"/>
                </mxCell>
                <mxCell id="fEfQI96myRlpj8SGZXUP-9" value="&lt;b&gt;Our Address&lt;/b&gt;" style="text;html=1;resizable=0;autosize=1;align=center;verticalAlign=middle;points=[];fillColor=none;strokeColor=none;shadow=0;fontSize=16;" parent="WjFdQQCOTypt50ZB_agh-1" vertex="1">
                    <mxGeometry x="170" y="581" width="110" height="20" as="geometry"/>
                </mxCell>
                <mxCell id="fEfQI96myRlpj8SGZXUP-10" value="121, Clear Water Bay Road&lt;br style=&quot;font-size: 11px;&quot;&gt;Clear Water Bay, Kowloon&lt;br style=&quot;font-size: 11px;&quot;&gt;HONG KONG&lt;br style=&quot;font-size: 11px;&quot;&gt;" style="text;html=1;resizable=0;autosize=1;align=center;verticalAlign=middle;points=[];fillColor=none;strokeColor=none;shadow=0;fontSize=11;" parent="WjFdQQCOTypt50ZB_agh-1" vertex="1">
                    <mxGeometry x="169" y="608" width="150" height="40" as="geometry"/>
                </mxCell>
                <mxCell id="fEfQI96myRlpj8SGZXUP-11" value="+85212345678" style="text;html=1;resizable=0;autosize=1;align=center;verticalAlign=middle;points=[];fillColor=none;strokeColor=none;shadow=0;fontSize=13;" parent="WjFdQQCOTypt50ZB_agh-1" vertex="1">
                    <mxGeometry x="190" y="648" width="100" height="20" as="geometry"/>
                </mxCell>
                <mxCell id="fEfQI96myRlpj8SGZXUP-12" value="+85287654321" style="text;html=1;resizable=0;autosize=1;align=center;verticalAlign=middle;points=[];fillColor=none;strokeColor=none;shadow=0;fontSize=13;" parent="WjFdQQCOTypt50ZB_agh-1" vertex="1">
                    <mxGeometry x="193" y="669" width="100" height="20" as="geometry"/>
                </mxCell>
                <mxCell id="fEfQI96myRlpj8SGZXUP-13" value="&lt;u&gt;&lt;font color=&quot;#0000ff&quot;&gt;confusion@food.net&lt;/font&gt;&lt;/u&gt;" style="text;html=1;resizable=0;autosize=1;align=center;verticalAlign=middle;points=[];fillColor=none;strokeColor=none;shadow=0;fontSize=13;" parent="WjFdQQCOTypt50ZB_agh-1" vertex="1">
                    <mxGeometry x="192" y="687" width="130" height="20" as="geometry"/>
                </mxCell>
                <mxCell id="fEfQI96myRlpj8SGZXUP-14" value="" style="shape=mxgraph.signs.tech.cell_phone;html=1;pointerEvents=1;fillColor=#000000;strokeColor=none;verticalLabelPosition=bottom;verticalAlign=top;align=center;shadow=0;fontSize=13;" parent="WjFdQQCOTypt50ZB_agh-1" vertex="1">
                    <mxGeometry x="178" y="651" width="12" height="18" as="geometry"/>
                </mxCell>
                <mxCell id="fEfQI96myRlpj8SGZXUP-15" value="" style="verticalLabelPosition=bottom;aspect=fixed;html=1;verticalAlign=top;strokeColor=none;align=center;outlineConnect=0;shape=mxgraph.citrix.ip_phone;shadow=0;fontSize=13;" parent="WjFdQQCOTypt50ZB_agh-1" vertex="1">
                    <mxGeometry x="174.34" y="678" width="18.59" height="9" as="geometry"/>
                </mxCell>
                <mxCell id="fEfQI96myRlpj8SGZXUP-16" value="" style="shape=mxgraph.signs.tech.mail;html=1;pointerEvents=1;fillColor=#000000;strokeColor=none;verticalLabelPosition=bottom;verticalAlign=top;align=center;shadow=0;fontSize=13;" parent="WjFdQQCOTypt50ZB_agh-1" vertex="1">
                    <mxGeometry x="130" y="830" width="24.34" as="geometry"/>
                </mxCell>
                <mxCell id="fEfQI96myRlpj8SGZXUP-17" value="" style="shape=mxgraph.signs.tech.mail;html=1;pointerEvents=1;fillColor=#000000;strokeColor=none;verticalLabelPosition=bottom;verticalAlign=top;align=center;shadow=0;fontSize=16;" parent="WjFdQQCOTypt50ZB_agh-1" vertex="1">
                    <mxGeometry x="177" y="699" width="16" height="8" as="geometry"/>
                </mxCell>
                <mxCell id="fEfQI96myRlpj8SGZXUP-18" value="Copyright 2008 Ristorante Con Fusion" style="text;html=1;resizable=0;autosize=1;align=center;verticalAlign=middle;points=[];fillColor=none;strokeColor=none;shadow=0;fontSize=12;" parent="WjFdQQCOTypt50ZB_agh-1" vertex="1">
                    <mxGeometry x="319" y="720" width="220" height="20" as="geometry"/>
                </mxCell>
                <mxCell id="fEfQI96myRlpj8SGZXUP-19" value="" style="dashed=0;outlineConnect=0;html=1;align=center;labelPosition=center;verticalLabelPosition=bottom;verticalAlign=top;shape=mxgraph.webicons.facebook;fillColor=#6294E4;gradientColor=#1A2665;shadow=0;fontSize=12;strokeWidth=2;" parent="WjFdQQCOTypt50ZB_agh-1" vertex="1">
                    <mxGeometry x="622" y="638" width="30" height="30" as="geometry"/>
                </mxCell>
                <mxCell id="fEfQI96myRlpj8SGZXUP-20" value="" style="dashed=0;outlineConnect=0;html=1;align=center;labelPosition=center;verticalLabelPosition=bottom;verticalAlign=top;shape=mxgraph.weblogos.youtube;fillColor=#FF2626;gradientColor=#B5171F;shadow=0;fontSize=12;strokeWidth=2;" parent="WjFdQQCOTypt50ZB_agh-1" vertex="1">
                    <mxGeometry x="718" y="638" width="30" height="30" as="geometry"/>
                </mxCell>
                <mxCell id="fEfQI96myRlpj8SGZXUP-21" value="" style="dashed=0;outlineConnect=0;html=1;align=center;labelPosition=center;verticalLabelPosition=bottom;verticalAlign=top;shape=mxgraph.webicons.twitter;fillColor=#49EAF7;gradientColor=#137BD0;shadow=0;fontSize=12;strokeWidth=2;" parent="WjFdQQCOTypt50ZB_agh-1" vertex="1">
                    <mxGeometry x="684" y="638" width="30" height="30" as="geometry"/>
                </mxCell>
                <mxCell id="fEfQI96myRlpj8SGZXUP-22" value="" style="dashed=0;outlineConnect=0;html=1;align=center;labelPosition=center;verticalLabelPosition=bottom;verticalAlign=top;shape=mxgraph.webicons.gmail;gradientColor=#DFDEDE;shadow=0;fontSize=12;strokeWidth=2;" parent="WjFdQQCOTypt50ZB_agh-1" vertex="1">
                    <mxGeometry x="748" y="638" width="30" height="30" as="geometry"/>
                </mxCell>
                <mxCell id="fEfQI96myRlpj8SGZXUP-23" value="" style="pointerEvents=1;shadow=0;dashed=0;html=1;strokeColor=none;fillColor=#505050;labelPosition=center;verticalLabelPosition=bottom;verticalAlign=top;outlineConnect=0;align=center;shape=mxgraph.office.concepts.home;fontSize=11;" parent="WjFdQQCOTypt50ZB_agh-1" vertex="1">
                    <mxGeometry x="145" y="68" width="24" height="19" as="geometry"/>
                </mxCell>
                <mxCell id="fEfQI96myRlpj8SGZXUP-24" value="Trang chủ" style="text;html=1;resizable=0;autosize=1;align=center;verticalAlign=middle;points=[];fillColor=none;strokeColor=none;fontSize=16;" parent="WjFdQQCOTypt50ZB_agh-1" vertex="1">
                    <mxGeometry x="164" y="70" width="90" height="20" as="geometry"/>
                </mxCell>
                <mxCell id="fEfQI96myRlpj8SGZXUP-25" value="" style="whiteSpace=wrap;html=1;fontSize=16;fontColor=#000000;strokeWidth=2;fillColor=#A9D9EC;strokeColor=#A9D9EC;fontStyle=1" parent="WjFdQQCOTypt50ZB_agh-1" vertex="1">
                    <mxGeometry x="40" y="113" width="760" height="447" as="geometry"/>
                </mxCell>
                <mxCell id="fEfQI96myRlpj8SGZXUP-26" value="" style="dashed=0;outlineConnect=0;html=1;align=center;labelPosition=center;verticalLabelPosition=bottom;verticalAlign=top;shape=mxgraph.weblogos.google_plus;fillColor=#DD4C40;strokeColor=none;fontSize=16;fontColor=#000000;" parent="WjFdQQCOTypt50ZB_agh-1" vertex="1">
                    <mxGeometry x="590" y="638" width="30" height="30" as="geometry"/>
                </mxCell>
                <mxCell id="fEfQI96myRlpj8SGZXUP-27" value="" style="dashed=0;outlineConnect=0;html=1;align=center;labelPosition=center;verticalLabelPosition=bottom;verticalAlign=top;shape=mxgraph.weblogos.linkedin;fillColor=#0095DB;gradientColor=#006391;fontSize=16;fontColor=#000000;strokeColor=#D1C4E9;strokeWidth=2;" parent="WjFdQQCOTypt50ZB_agh-1" vertex="1">
                    <mxGeometry x="654" y="638" width="30" height="30" as="geometry"/>
                </mxCell>
                <mxCell id="fEfQI96myRlpj8SGZXUP-28" value="" style="whiteSpace=wrap;html=1;fontSize=16;strokeWidth=2;strokeColor=#FFFFFF;" parent="WjFdQQCOTypt50ZB_agh-1" vertex="1">
                    <mxGeometry x="61" y="113" width="145.5" height="37" as="geometry"/>
                </mxCell>
                <mxCell id="fEfQI96myRlpj8SGZXUP-29" value="&lt;font style=&quot;font-size: 11px&quot; color=&quot;#0000ff&quot;&gt;Nhân Viên&lt;/font&gt;&lt;font color=&quot;#000000&quot; style=&quot;font-size: 11px&quot;&gt; /&lt;/font&gt;&lt;font style=&quot;font-size: 11px&quot; color=&quot;#333333&quot;&gt;&amp;nbsp;Nguyễn Văn B&lt;/font&gt;" style="text;html=1;resizable=0;autosize=1;align=center;verticalAlign=middle;points=[];fillColor=none;strokeColor=none;fontSize=16;fontColor=#FFFFFF;spacingBottom=1;" parent="WjFdQQCOTypt50ZB_agh-1" vertex="1">
                    <mxGeometry x="57" y="116.5" width="150" height="30" as="geometry"/>
                </mxCell>
                <mxCell id="fEfQI96myRlpj8SGZXUP-30" value="&lt;font color=&quot;#000000&quot;&gt;Nguyễn Văn B&lt;/font&gt;" style="text;html=1;resizable=0;autosize=1;align=center;verticalAlign=middle;points=[];fillColor=none;strokeColor=none;fontSize=16;fontColor=#FFFFFF;" parent="WjFdQQCOTypt50ZB_agh-1" vertex="1">
                    <mxGeometry x="60" y="160" width="120" height="20" as="geometry"/>
                </mxCell>
                <mxCell id="fEfQI96myRlpj8SGZXUP-31" value="" style="endArrow=none;html=1;fontSize=27;fontColor=#333333;strokeColor=#808080;" parent="WjFdQQCOTypt50ZB_agh-1" edge="1">
                    <mxGeometry width="50" height="50" relative="1" as="geometry">
                        <mxPoint x="83.00000000000011" y="189.9999999999999" as="sourcePoint"/>
                        <mxPoint x="762" y="189.9999999999999" as="targetPoint"/>
                    </mxGeometry>
                </mxCell>
                <mxCell id="fEfQI96myRlpj8SGZXUP-76" value="" style="endArrow=classic;startArrow=classic;html=1;fontColor=#333333;strokeColor=#808080;entryX=0.019;entryY=1.057;entryDx=0;entryDy=0;entryPerimeter=0;" parent="WjFdQQCOTypt50ZB_agh-1" target="OtTo9t94IAYGmTNmIGoX-0" edge="1">
                    <mxGeometry width="50" height="50" relative="1" as="geometry">
                        <mxPoint x="810" y="390" as="sourcePoint"/>
                        <mxPoint x="920" y="269.9999999999999" as="targetPoint"/>
                    </mxGeometry>
                </mxCell>
                <mxCell id="fEfQI96myRlpj8SGZXUP-77" value="" style="endArrow=classic;startArrow=classic;html=1;fontColor=#333333;strokeColor=#808080;" parent="WjFdQQCOTypt50ZB_agh-1" edge="1">
                    <mxGeometry width="50" height="50" relative="1" as="geometry">
                        <mxPoint x="810" y="440" as="sourcePoint"/>
                        <mxPoint x="860" y="440" as="targetPoint"/>
                    </mxGeometry>
                </mxCell>
                <mxCell id="kTnA_GC8GRYwpQTsLtQr-0" value="" style="verticalLabelPosition=bottom;shadow=0;dashed=0;align=center;html=1;verticalAlign=top;strokeWidth=1;shape=mxgraph.mockup.containers.userMale;strokeColor=#666666;strokeColor2=#008cff;fontSize=19;" parent="WjFdQQCOTypt50ZB_agh-1" vertex="1">
                    <mxGeometry x="80" y="240" width="240" height="280" as="geometry"/>
                </mxCell>
                <mxCell id="kTnA_GC8GRYwpQTsLtQr-1" value="&lt;font style=&quot;font-size: 27px;&quot;&gt;Họ&amp;nbsp; và&amp;nbsp; tên: Nguyễn Văn B&lt;/font&gt;" style="text;html=1;resizable=0;autosize=1;align=center;verticalAlign=middle;points=[];fillColor=none;strokeColor=none;rounded=0;shadow=0;fontSize=27;fontStyle=1" parent="WjFdQQCOTypt50ZB_agh-1" vertex="1">
                    <mxGeometry x="351" y="251" width="350" height="40" as="geometry"/>
                </mxCell>
                <mxCell id="kTnA_GC8GRYwpQTsLtQr-2" value="&lt;font style=&quot;font-size: 23px;&quot;&gt;Ngày&amp;nbsp; sinh: 01/01/2000&lt;/font&gt;" style="text;html=1;resizable=0;autosize=1;align=center;verticalAlign=middle;points=[];fillColor=none;strokeColor=none;rounded=0;shadow=0;fontSize=23;" parent="WjFdQQCOTypt50ZB_agh-1" vertex="1">
                    <mxGeometry x="352" y="297" width="250" height="30" as="geometry"/>
                </mxCell>
                <mxCell id="kTnA_GC8GRYwpQTsLtQr-3" value="&lt;font style=&quot;font-size: 23px;&quot;&gt;Ngày&amp;nbsp; vào&amp;nbsp; công&amp;nbsp; ty: 30/04/2019&amp;nbsp;&lt;/font&gt;" style="text;html=1;resizable=0;autosize=1;align=center;verticalAlign=middle;points=[];fillColor=none;strokeColor=none;rounded=0;shadow=0;fontSize=23;" parent="WjFdQQCOTypt50ZB_agh-1" vertex="1">
                    <mxGeometry x="350" y="337" width="350" height="30" as="geometry"/>
                </mxCell>
                <mxCell id="kTnA_GC8GRYwpQTsLtQr-4" value="&lt;span style=&quot;font-size: 23px;&quot;&gt;Phòng&amp;nbsp; ban: HR&lt;/span&gt;" style="text;html=1;resizable=0;autosize=1;align=center;verticalAlign=middle;points=[];fillColor=none;strokeColor=none;rounded=0;shadow=0;fontSize=23;" parent="WjFdQQCOTypt50ZB_agh-1" vertex="1">
                    <mxGeometry x="350" y="378" width="180" height="30" as="geometry"/>
                </mxCell>
                <mxCell id="kTnA_GC8GRYwpQTsLtQr-5" value="&lt;font style=&quot;font-size: 23px;&quot;&gt;Số&amp;nbsp; ngày&amp;nbsp; nghỉ&amp;nbsp; còn&amp;nbsp; lại: 2&lt;/font&gt;" style="text;html=1;resizable=0;autosize=1;align=center;verticalAlign=middle;points=[];fillColor=none;strokeColor=none;rounded=0;shadow=0;fontSize=23;" parent="WjFdQQCOTypt50ZB_agh-1" vertex="1">
                    <mxGeometry x="349" y="418" width="280" height="30" as="geometry"/>
                </mxCell>
                <mxCell id="kTnA_GC8GRYwpQTsLtQr-6" value="Số&amp;nbsp; ngày đã làm thêm: 3" style="text;html=1;resizable=0;autosize=1;align=center;verticalAlign=middle;points=[];fillColor=none;strokeColor=none;rounded=0;shadow=0;fontSize=23;" parent="WjFdQQCOTypt50ZB_agh-1" vertex="1">
                    <mxGeometry x="354" y="458" width="260" height="30" as="geometry"/>
                </mxCell>
                <mxCell id="OtTo9t94IAYGmTNmIGoX-0" value="Laptop: image 3 column, text 9 column" style="rounded=1;whiteSpace=wrap;html=1;shadow=0;fontSize=23;strokeWidth=2;" parent="WjFdQQCOTypt50ZB_agh-1" vertex="1">
                    <mxGeometry x="870" y="240" width="430" height="70" as="geometry"/>
                </mxCell>
                <mxCell id="OtTo9t94IAYGmTNmIGoX-1" value="Tablet: image 4 column, text 8 column" style="rounded=1;whiteSpace=wrap;html=1;shadow=0;fontSize=23;strokeWidth=2;" parent="WjFdQQCOTypt50ZB_agh-1" vertex="1">
                    <mxGeometry x="880" y="388" width="420" height="82" as="geometry"/>
                </mxCell>
                <mxCell id="OtTo9t94IAYGmTNmIGoX-2" value="Mobile: image 12 column, text 12 column" style="rounded=1;whiteSpace=wrap;html=1;shadow=0;fontSize=23;strokeWidth=2;" parent="WjFdQQCOTypt50ZB_agh-1" vertex="1">
                    <mxGeometry x="880" y="560" width="450" height="70" as="geometry"/>
                </mxCell>
                <mxCell id="OtTo9t94IAYGmTNmIGoX-3" value="" style="endArrow=classic;startArrow=classic;html=1;fontColor=#FFFFFF;strokeColor=#808080;" parent="WjFdQQCOTypt50ZB_agh-1" edge="1">
                    <mxGeometry width="50" height="50" relative="1" as="geometry">
                        <mxPoint x="860" y="570" as="sourcePoint"/>
                        <mxPoint x="810" y="520" as="targetPoint"/>
                    </mxGeometry>
                </mxCell>
            </root>
        </mxGraphModel>
    </diagram>
    <diagram id="tyMjAmOMMkfKCiumd5Mk" name="ページ4">
        <mxGraphModel dx="961" dy="623" grid="1" gridSize="10" guides="1" tooltips="1" connect="1" arrows="1" fold="1" page="1" pageScale="1" pageWidth="827" pageHeight="1169" math="0" shadow="0">
            <root>
                <mxCell id="0RcedpETYWQIQaAl0rTX-0"/>
                <mxCell id="0RcedpETYWQIQaAl0rTX-1" parent="0RcedpETYWQIQaAl0rTX-0"/>
                <mxCell id="TxZsaHYYsmZJ7nVLC-Al-0" value="" style="whiteSpace=wrap;html=1;fillColor=#512DA8;strokeColor=#4C0099;" parent="0RcedpETYWQIQaAl0rTX-1" vertex="1">
                    <mxGeometry x="40" y="42" width="760" height="70" as="geometry"/>
                </mxCell>
                <mxCell id="TxZsaHYYsmZJ7nVLC-Al-1" value="Phòng&amp;nbsp; Ban" style="text;html=1;resizable=0;autosize=1;align=center;verticalAlign=middle;points=[];fillColor=none;strokeColor=none;perimeterSpacing=1;strokeWidth=2;fontSize=16;fontColor=#FFFFFF;" parent="0RcedpETYWQIQaAl0rTX-1" vertex="1">
                    <mxGeometry x="402" y="70" width="100" height="20" as="geometry"/>
                </mxCell>
                <mxCell id="TxZsaHYYsmZJ7nVLC-Al-2" value="Bảng&amp;nbsp; Lương" style="text;html=1;resizable=0;autosize=1;align=center;verticalAlign=middle;points=[];fillColor=none;strokeColor=none;fontSize=16;" parent="0RcedpETYWQIQaAl0rTX-1" vertex="1">
                    <mxGeometry x="527" y="70" width="110" height="20" as="geometry"/>
                </mxCell>
                <mxCell id="TxZsaHYYsmZJ7nVLC-Al-3" value="Nhân&amp;nbsp; Viên" style="text;html=1;resizable=0;autosize=1;align=center;verticalAlign=middle;points=[];fillColor=none;strokeColor=none;shadow=0;fontSize=16;" parent="0RcedpETYWQIQaAl0rTX-1" vertex="1">
                    <mxGeometry x="282" y="70" width="90" height="20" as="geometry"/>
                </mxCell>
                <mxCell id="TxZsaHYYsmZJ7nVLC-Al-4" value="Logo" style="ellipse;shape=cloud;whiteSpace=wrap;html=1;fontSize=11;" parent="0RcedpETYWQIQaAl0rTX-1" vertex="1">
                    <mxGeometry x="89" y="54.5" width="53" height="45" as="geometry"/>
                </mxCell>
                <mxCell id="TxZsaHYYsmZJ7nVLC-Al-5" value="" style="html=1;verticalLabelPosition=bottom;align=center;labelBackgroundColor=#ffffff;verticalAlign=top;strokeWidth=2;strokeColor=#0080F0;shadow=0;dashed=0;shape=mxgraph.ios7.icons.user;fontSize=11;" parent="0RcedpETYWQIQaAl0rTX-1" vertex="1">
                    <mxGeometry x="260" y="67" width="25" height="22" as="geometry"/>
                </mxCell>
                <mxCell id="TxZsaHYYsmZJ7nVLC-Al-6" value="" style="html=1;verticalLabelPosition=bottom;align=center;labelBackgroundColor=#ffffff;verticalAlign=top;strokeWidth=2;strokeColor=#0080F0;shadow=0;dashed=0;shape=mxgraph.ios7.icons.credit_card;" parent="0RcedpETYWQIQaAl0rTX-1" vertex="1">
                    <mxGeometry x="382" y="68" width="23" height="18" as="geometry"/>
                </mxCell>
                <mxCell id="TxZsaHYYsmZJ7nVLC-Al-7" value="" style="html=1;verticalLabelPosition=bottom;align=center;labelBackgroundColor=#ffffff;verticalAlign=top;strokeWidth=2;strokeColor=#0080F0;shadow=0;dashed=0;shape=mxgraph.ios7.icons.wallet;" parent="0RcedpETYWQIQaAl0rTX-1" vertex="1">
                    <mxGeometry x="510" y="70" width="21" height="18" as="geometry"/>
                </mxCell>
                <mxCell id="TxZsaHYYsmZJ7nVLC-Al-8" value="" style="whiteSpace=wrap;html=1;shadow=0;fontSize=27;strokeWidth=2;labelBorderColor=none;fillColor=#D1C4E9;strokeColor=#D1C4E9;spacingBottom=-1;" parent="0RcedpETYWQIQaAl0rTX-1" vertex="1">
                    <mxGeometry x="40" y="451" width="760" height="200" as="geometry"/>
                </mxCell>
                <mxCell id="TxZsaHYYsmZJ7nVLC-Al-9" value="&lt;b&gt;Our Address&lt;/b&gt;" style="text;html=1;resizable=0;autosize=1;align=center;verticalAlign=middle;points=[];fillColor=none;strokeColor=none;shadow=0;fontSize=16;" parent="0RcedpETYWQIQaAl0rTX-1" vertex="1">
                    <mxGeometry x="165" y="470" width="110" height="20" as="geometry"/>
                </mxCell>
                <mxCell id="TxZsaHYYsmZJ7nVLC-Al-10" value="121, Clear Water Bay Road&lt;br style=&quot;font-size: 11px;&quot;&gt;Clear Water Bay, Kowloon&lt;br style=&quot;font-size: 11px;&quot;&gt;HONG KONG&lt;br style=&quot;font-size: 11px;&quot;&gt;" style="text;html=1;resizable=0;autosize=1;align=center;verticalAlign=middle;points=[];fillColor=none;strokeColor=none;shadow=0;fontSize=11;" parent="0RcedpETYWQIQaAl0rTX-1" vertex="1">
                    <mxGeometry x="164" y="497" width="150" height="40" as="geometry"/>
                </mxCell>
                <mxCell id="TxZsaHYYsmZJ7nVLC-Al-11" value="+85212345678" style="text;html=1;resizable=0;autosize=1;align=center;verticalAlign=middle;points=[];fillColor=none;strokeColor=none;shadow=0;fontSize=13;" parent="0RcedpETYWQIQaAl0rTX-1" vertex="1">
                    <mxGeometry x="185" y="537" width="100" height="20" as="geometry"/>
                </mxCell>
                <mxCell id="TxZsaHYYsmZJ7nVLC-Al-12" value="+85287654321" style="text;html=1;resizable=0;autosize=1;align=center;verticalAlign=middle;points=[];fillColor=none;strokeColor=none;shadow=0;fontSize=13;" parent="0RcedpETYWQIQaAl0rTX-1" vertex="1">
                    <mxGeometry x="188" y="558" width="100" height="20" as="geometry"/>
                </mxCell>
                <mxCell id="TxZsaHYYsmZJ7nVLC-Al-13" value="&lt;u&gt;&lt;font color=&quot;#0000ff&quot;&gt;confusion@food.net&lt;/font&gt;&lt;/u&gt;" style="text;html=1;resizable=0;autosize=1;align=center;verticalAlign=middle;points=[];fillColor=none;strokeColor=none;shadow=0;fontSize=13;" parent="0RcedpETYWQIQaAl0rTX-1" vertex="1">
                    <mxGeometry x="187" y="576" width="130" height="20" as="geometry"/>
                </mxCell>
                <mxCell id="TxZsaHYYsmZJ7nVLC-Al-14" value="" style="shape=mxgraph.signs.tech.cell_phone;html=1;pointerEvents=1;fillColor=#000000;strokeColor=none;verticalLabelPosition=bottom;verticalAlign=top;align=center;shadow=0;fontSize=13;" parent="0RcedpETYWQIQaAl0rTX-1" vertex="1">
                    <mxGeometry x="173" y="540" width="12" height="18" as="geometry"/>
                </mxCell>
                <mxCell id="TxZsaHYYsmZJ7nVLC-Al-15" value="" style="verticalLabelPosition=bottom;aspect=fixed;html=1;verticalAlign=top;strokeColor=none;align=center;outlineConnect=0;shape=mxgraph.citrix.ip_phone;shadow=0;fontSize=13;" parent="0RcedpETYWQIQaAl0rTX-1" vertex="1">
                    <mxGeometry x="169.34" y="567" width="18.59" height="9" as="geometry"/>
                </mxCell>
                <mxCell id="TxZsaHYYsmZJ7nVLC-Al-16" value="" style="shape=mxgraph.signs.tech.mail;html=1;pointerEvents=1;fillColor=#000000;strokeColor=none;verticalLabelPosition=bottom;verticalAlign=top;align=center;shadow=0;fontSize=13;" parent="0RcedpETYWQIQaAl0rTX-1" vertex="1">
                    <mxGeometry x="130" y="830" width="24.34" as="geometry"/>
                </mxCell>
                <mxCell id="TxZsaHYYsmZJ7nVLC-Al-17" value="" style="shape=mxgraph.signs.tech.mail;html=1;pointerEvents=1;fillColor=#000000;strokeColor=none;verticalLabelPosition=bottom;verticalAlign=top;align=center;shadow=0;fontSize=16;" parent="0RcedpETYWQIQaAl0rTX-1" vertex="1">
                    <mxGeometry x="172" y="588" width="16" height="8" as="geometry"/>
                </mxCell>
                <mxCell id="TxZsaHYYsmZJ7nVLC-Al-18" value="Copyright 2008 Ristorante Con Fusion" style="text;html=1;resizable=0;autosize=1;align=center;verticalAlign=middle;points=[];fillColor=none;strokeColor=none;shadow=0;fontSize=12;" parent="0RcedpETYWQIQaAl0rTX-1" vertex="1">
                    <mxGeometry x="310" y="618" width="220" height="20" as="geometry"/>
                </mxCell>
                <mxCell id="TxZsaHYYsmZJ7nVLC-Al-19" value="" style="dashed=0;outlineConnect=0;html=1;align=center;labelPosition=center;verticalLabelPosition=bottom;verticalAlign=top;shape=mxgraph.webicons.facebook;fillColor=#6294E4;gradientColor=#1A2665;shadow=0;fontSize=12;strokeWidth=2;" parent="0RcedpETYWQIQaAl0rTX-1" vertex="1">
                    <mxGeometry x="607" y="530" width="30" height="30" as="geometry"/>
                </mxCell>
                <mxCell id="TxZsaHYYsmZJ7nVLC-Al-20" value="" style="dashed=0;outlineConnect=0;html=1;align=center;labelPosition=center;verticalLabelPosition=bottom;verticalAlign=top;shape=mxgraph.weblogos.youtube;fillColor=#FF2626;gradientColor=#B5171F;shadow=0;fontSize=12;strokeWidth=2;" parent="0RcedpETYWQIQaAl0rTX-1" vertex="1">
                    <mxGeometry x="703" y="530" width="30" height="30" as="geometry"/>
                </mxCell>
                <mxCell id="TxZsaHYYsmZJ7nVLC-Al-21" value="" style="dashed=0;outlineConnect=0;html=1;align=center;labelPosition=center;verticalLabelPosition=bottom;verticalAlign=top;shape=mxgraph.webicons.twitter;fillColor=#49EAF7;gradientColor=#137BD0;shadow=0;fontSize=12;strokeWidth=2;" parent="0RcedpETYWQIQaAl0rTX-1" vertex="1">
                    <mxGeometry x="669" y="530" width="30" height="30" as="geometry"/>
                </mxCell>
                <mxCell id="TxZsaHYYsmZJ7nVLC-Al-22" value="" style="dashed=0;outlineConnect=0;html=1;align=center;labelPosition=center;verticalLabelPosition=bottom;verticalAlign=top;shape=mxgraph.webicons.gmail;gradientColor=#DFDEDE;shadow=0;fontSize=12;strokeWidth=2;" parent="0RcedpETYWQIQaAl0rTX-1" vertex="1">
                    <mxGeometry x="733" y="530" width="30" height="30" as="geometry"/>
                </mxCell>
                <mxCell id="TxZsaHYYsmZJ7nVLC-Al-23" value="" style="pointerEvents=1;shadow=0;dashed=0;html=1;strokeColor=none;fillColor=#505050;labelPosition=center;verticalLabelPosition=bottom;verticalAlign=top;outlineConnect=0;align=center;shape=mxgraph.office.concepts.home;fontSize=11;" parent="0RcedpETYWQIQaAl0rTX-1" vertex="1">
                    <mxGeometry x="145" y="68" width="24" height="19" as="geometry"/>
                </mxCell>
                <mxCell id="TxZsaHYYsmZJ7nVLC-Al-24" value="Trang chủ" style="text;html=1;resizable=0;autosize=1;align=center;verticalAlign=middle;points=[];fillColor=none;strokeColor=none;fontSize=16;" parent="0RcedpETYWQIQaAl0rTX-1" vertex="1">
                    <mxGeometry x="164" y="70" width="90" height="20" as="geometry"/>
                </mxCell>
                <mxCell id="TxZsaHYYsmZJ7nVLC-Al-25" value="" style="whiteSpace=wrap;html=1;fontSize=16;fontColor=#000000;strokeWidth=2;fillColor=#A9D9EC;strokeColor=#A9D9EC;" parent="0RcedpETYWQIQaAl0rTX-1" vertex="1">
                    <mxGeometry x="40" y="113" width="760" height="337" as="geometry"/>
                </mxCell>
                <mxCell id="TxZsaHYYsmZJ7nVLC-Al-26" value="" style="dashed=0;outlineConnect=0;html=1;align=center;labelPosition=center;verticalLabelPosition=bottom;verticalAlign=top;shape=mxgraph.weblogos.google_plus;fillColor=#DD4C40;strokeColor=none;fontSize=16;fontColor=#000000;" parent="0RcedpETYWQIQaAl0rTX-1" vertex="1">
                    <mxGeometry x="575" y="530" width="30" height="30" as="geometry"/>
                </mxCell>
                <mxCell id="TxZsaHYYsmZJ7nVLC-Al-27" value="" style="dashed=0;outlineConnect=0;html=1;align=center;labelPosition=center;verticalLabelPosition=bottom;verticalAlign=top;shape=mxgraph.weblogos.linkedin;fillColor=#0095DB;gradientColor=#006391;fontSize=16;fontColor=#000000;strokeColor=#D1C4E9;strokeWidth=2;" parent="0RcedpETYWQIQaAl0rTX-1" vertex="1">
                    <mxGeometry x="639" y="530" width="30" height="30" as="geometry"/>
                </mxCell>
                <mxCell id="TxZsaHYYsmZJ7nVLC-Al-28" value="" style="whiteSpace=wrap;html=1;fontSize=16;strokeWidth=2;strokeColor=#FFFFFF;" parent="0RcedpETYWQIQaAl0rTX-1" vertex="1">
                    <mxGeometry x="61" y="113" width="145.5" height="37" as="geometry"/>
                </mxCell>
                <mxCell id="TxZsaHYYsmZJ7nVLC-Al-29" value="&lt;font style=&quot;font-size: 11px&quot; color=&quot;#0000ff&quot;&gt;Trang chủ&lt;/font&gt;&lt;font color=&quot;#000000&quot; style=&quot;font-size: 11px&quot;&gt; /&lt;/font&gt;&lt;font style=&quot;font-size: 11px&quot; color=&quot;#333333&quot;&gt;&amp;nbsp;Phòng Ban&lt;/font&gt;" style="text;html=1;resizable=0;autosize=1;align=center;verticalAlign=middle;points=[];fillColor=none;strokeColor=none;fontSize=16;fontColor=#FFFFFF;spacingBottom=1;" parent="0RcedpETYWQIQaAl0rTX-1" vertex="1">
                    <mxGeometry x="67" y="116.5" width="130" height="30" as="geometry"/>
                </mxCell>
                <mxCell id="TxZsaHYYsmZJ7nVLC-Al-30" value="&lt;font color=&quot;#000000&quot;&gt;Phòng Ban&lt;/font&gt;" style="text;html=1;resizable=0;autosize=1;align=center;verticalAlign=middle;points=[];fillColor=none;strokeColor=none;fontSize=16;fontColor=#FFFFFF;" parent="0RcedpETYWQIQaAl0rTX-1" vertex="1">
                    <mxGeometry x="75" y="160" width="90" height="20" as="geometry"/>
                </mxCell>
                <mxCell id="TxZsaHYYsmZJ7nVLC-Al-31" value="" style="endArrow=none;html=1;fontSize=27;fontColor=#333333;strokeColor=#808080;" parent="0RcedpETYWQIQaAl0rTX-1" edge="1">
                    <mxGeometry width="50" height="50" relative="1" as="geometry">
                        <mxPoint x="83.00000000000011" y="189.9999999999999" as="sourcePoint"/>
                        <mxPoint x="762" y="189.9999999999999" as="targetPoint"/>
                    </mxGeometry>
                </mxCell>
                <mxCell id="TxZsaHYYsmZJ7nVLC-Al-32" value="" style="rounded=1;whiteSpace=wrap;html=1;shadow=0;fontSize=12;strokeWidth=2;" parent="0RcedpETYWQIQaAl0rTX-1" vertex="1">
                    <mxGeometry x="940" y="60" width="600" height="210" as="geometry"/>
                </mxCell>
                <mxCell id="TxZsaHYYsmZJ7nVLC-Al-39" value="Tablet" style="text;html=1;resizable=0;autosize=1;align=center;verticalAlign=middle;points=[];fillColor=none;strokeColor=none;rounded=0;shadow=0;fontSize=30;" parent="0RcedpETYWQIQaAl0rTX-1" vertex="1">
                    <mxGeometry x="1200" y="73" width="100" height="40" as="geometry"/>
                </mxCell>
                <mxCell id="TxZsaHYYsmZJ7nVLC-Al-40" value="" style="rounded=1;whiteSpace=wrap;html=1;shadow=0;fontSize=30;strokeWidth=2;" parent="0RcedpETYWQIQaAl0rTX-1" vertex="1">
                    <mxGeometry x="960" y="480" width="420" height="200" as="geometry"/>
                </mxCell>
                <mxCell id="TxZsaHYYsmZJ7nVLC-Al-45" value="Mobile" style="text;html=1;resizable=0;autosize=1;align=center;verticalAlign=middle;points=[];fillColor=none;strokeColor=none;rounded=0;shadow=0;fontSize=30;" parent="0RcedpETYWQIQaAl0rTX-1" vertex="1">
                    <mxGeometry x="1130" y="490" width="100" height="40" as="geometry"/>
                </mxCell>
                <mxCell id="TxZsaHYYsmZJ7nVLC-Al-46" value="" style="endArrow=classic;startArrow=classic;html=1;fontColor=#333333;strokeColor=#808080;" parent="0RcedpETYWQIQaAl0rTX-1" edge="1">
                    <mxGeometry width="50" height="50" relative="1" as="geometry">
                        <mxPoint x="810" y="390" as="sourcePoint"/>
                        <mxPoint x="920" y="269.9999999999999" as="targetPoint"/>
                    </mxGeometry>
                </mxCell>
                <mxCell id="TxZsaHYYsmZJ7nVLC-Al-47" value="" style="endArrow=classic;startArrow=classic;html=1;fontColor=#333333;strokeColor=#808080;" parent="0RcedpETYWQIQaAl0rTX-1" target="TxZsaHYYsmZJ7nVLC-Al-40" edge="1">
                    <mxGeometry width="50" height="50" relative="1" as="geometry">
                        <mxPoint x="810" y="440" as="sourcePoint"/>
                        <mxPoint x="960" y="380" as="targetPoint"/>
                    </mxGeometry>
                </mxCell>
                <mxCell id="X6kW3lN7tKLFcTlAtZEQ-0" value="" style="rounded=1;whiteSpace=wrap;html=1;shadow=0;fontSize=23;strokeWidth=2;" parent="0RcedpETYWQIQaAl0rTX-1" vertex="1">
                    <mxGeometry x="75" y="216" width="221.36" height="90" as="geometry"/>
                </mxCell>
                <mxCell id="X6kW3lN7tKLFcTlAtZEQ-1" value="" style="whiteSpace=wrap;html=1;rounded=1;shadow=0;fontSize=23;strokeWidth=2;" parent="0RcedpETYWQIQaAl0rTX-1" vertex="1">
                    <mxGeometry x="312" y="216" width="220" height="90" as="geometry"/>
                </mxCell>
                <mxCell id="X6kW3lN7tKLFcTlAtZEQ-2" value="" style="whiteSpace=wrap;html=1;rounded=1;shadow=0;fontSize=23;strokeWidth=2;" parent="0RcedpETYWQIQaAl0rTX-1" vertex="1">
                    <mxGeometry x="550" y="216" width="223.32" height="90" as="geometry"/>
                </mxCell>
                <mxCell id="X6kW3lN7tKLFcTlAtZEQ-3" value="" style="rounded=1;whiteSpace=wrap;html=1;shadow=0;fontSize=23;strokeWidth=2;" parent="0RcedpETYWQIQaAl0rTX-1" vertex="1">
                    <mxGeometry x="75" y="330" width="221.36" height="90" as="geometry"/>
                </mxCell>
                <mxCell id="X6kW3lN7tKLFcTlAtZEQ-4" value="" style="rounded=1;whiteSpace=wrap;html=1;shadow=0;fontSize=23;strokeWidth=2;" parent="0RcedpETYWQIQaAl0rTX-1" vertex="1">
                    <mxGeometry x="310" y="330" width="220" height="90" as="geometry"/>
                </mxCell>
                <mxCell id="X6kW3lN7tKLFcTlAtZEQ-5" value="&lt;b style=&quot;font-size: 25px;&quot;&gt;Sale&lt;/b&gt;" style="text;html=1;resizable=0;autosize=1;align=center;verticalAlign=middle;points=[];fillColor=none;strokeColor=none;rounded=0;shadow=0;fontSize=25;" parent="0RcedpETYWQIQaAl0rTX-1" vertex="1">
                    <mxGeometry x="85.7" y="226" width="70" height="40" as="geometry"/>
                </mxCell>
                <mxCell id="X6kW3lN7tKLFcTlAtZEQ-6" value="&lt;b style=&quot;font-size: 25px;&quot;&gt;IT&lt;/b&gt;" style="text;html=1;resizable=0;autosize=1;align=center;verticalAlign=middle;points=[];fillColor=none;strokeColor=none;rounded=0;shadow=0;fontSize=25;" parent="0RcedpETYWQIQaAl0rTX-1" vertex="1">
                    <mxGeometry x="86.36" y="340" width="40" height="40" as="geometry"/>
                </mxCell>
                <mxCell id="X6kW3lN7tKLFcTlAtZEQ-7" value="&lt;b style=&quot;font-size: 25px;&quot;&gt;HR&lt;/b&gt;" style="text;html=1;resizable=0;autosize=1;align=center;verticalAlign=middle;points=[];fillColor=none;strokeColor=none;rounded=0;shadow=0;fontSize=25;" parent="0RcedpETYWQIQaAl0rTX-1" vertex="1">
                    <mxGeometry x="330" y="226" width="50" height="40" as="geometry"/>
                </mxCell>
                <mxCell id="X6kW3lN7tKLFcTlAtZEQ-8" value="&lt;b style=&quot;font-size: 25px;&quot;&gt;Finance&lt;/b&gt;" style="text;html=1;resizable=0;autosize=1;align=center;verticalAlign=middle;points=[];fillColor=none;strokeColor=none;rounded=0;shadow=0;fontSize=25;" parent="0RcedpETYWQIQaAl0rTX-1" vertex="1">
                    <mxGeometry x="324" y="335" width="110" height="40" as="geometry"/>
                </mxCell>
                <mxCell id="X6kW3lN7tKLFcTlAtZEQ-9" value="&lt;b style=&quot;font-size: 25px;&quot;&gt;Marketing&lt;/b&gt;" style="text;html=1;resizable=0;autosize=1;align=center;verticalAlign=middle;points=[];fillColor=none;strokeColor=none;rounded=0;shadow=0;fontSize=25;" parent="0RcedpETYWQIQaAl0rTX-1" vertex="1">
                    <mxGeometry x="558" y="226" width="130" height="40" as="geometry"/>
                </mxCell>
                <mxCell id="X6kW3lN7tKLFcTlAtZEQ-10" value="Số&amp;nbsp; lượng nhân viên:1" style="text;html=1;resizable=0;autosize=1;align=center;verticalAlign=middle;points=[];fillColor=none;strokeColor=none;rounded=0;shadow=0;fontSize=16;" parent="0RcedpETYWQIQaAl0rTX-1" vertex="1">
                    <mxGeometry x="95.36" y="271" width="170" height="20" as="geometry"/>
                </mxCell>
                <mxCell id="X6kW3lN7tKLFcTlAtZEQ-11" value="Số&amp;nbsp; lượng nhân viên:1" style="text;html=1;resizable=0;autosize=1;align=center;verticalAlign=middle;points=[];fillColor=none;strokeColor=none;rounded=0;shadow=0;fontSize=16;" parent="0RcedpETYWQIQaAl0rTX-1" vertex="1">
                    <mxGeometry x="96.36" y="386" width="170" height="20" as="geometry"/>
                </mxCell>
                <mxCell id="X6kW3lN7tKLFcTlAtZEQ-12" value="Số&amp;nbsp; lượng nhân viên:11" style="text;html=1;resizable=0;autosize=1;align=center;verticalAlign=middle;points=[];fillColor=none;strokeColor=none;rounded=0;shadow=0;fontSize=16;" parent="0RcedpETYWQIQaAl0rTX-1" vertex="1">
                    <mxGeometry x="332" y="386" width="180" height="20" as="geometry"/>
                </mxCell>
                <mxCell id="X6kW3lN7tKLFcTlAtZEQ-13" value="Số&amp;nbsp; lượng nhân viên:2" style="text;html=1;resizable=0;autosize=1;align=center;verticalAlign=middle;points=[];fillColor=none;strokeColor=none;rounded=0;shadow=0;fontSize=16;" parent="0RcedpETYWQIQaAl0rTX-1" vertex="1">
                    <mxGeometry x="575" y="271" width="170" height="20" as="geometry"/>
                </mxCell>
                <mxCell id="X6kW3lN7tKLFcTlAtZEQ-14" value="Số&amp;nbsp; lượng nhân viên:3" style="text;html=1;resizable=0;autosize=1;align=center;verticalAlign=middle;points=[];fillColor=none;strokeColor=none;rounded=0;shadow=0;fontSize=16;" parent="0RcedpETYWQIQaAl0rTX-1" vertex="1">
                    <mxGeometry x="339" y="271" width="170" height="20" as="geometry"/>
                </mxCell>
                <mxCell id="zUA3ccWD0WjfKzH4NpSP-0" value="" style="rounded=1;whiteSpace=wrap;html=1;shadow=0;fontSize=23;strokeWidth=2;" parent="0RcedpETYWQIQaAl0rTX-1" vertex="1">
                    <mxGeometry x="960" y="136" width="221.36" height="90" as="geometry"/>
                </mxCell>
                <mxCell id="zUA3ccWD0WjfKzH4NpSP-1" value="&lt;b style=&quot;font-size: 25px;&quot;&gt;Sale&lt;/b&gt;" style="text;html=1;resizable=0;autosize=1;align=center;verticalAlign=middle;points=[];fillColor=none;strokeColor=none;rounded=0;shadow=0;fontSize=25;" parent="0RcedpETYWQIQaAl0rTX-1" vertex="1">
                    <mxGeometry x="970.7" y="146" width="70" height="40" as="geometry"/>
                </mxCell>
                <mxCell id="zUA3ccWD0WjfKzH4NpSP-2" value="Số&amp;nbsp; lượng nhân viên:1" style="text;html=1;resizable=0;autosize=1;align=center;verticalAlign=middle;points=[];fillColor=none;strokeColor=none;rounded=0;shadow=0;fontSize=16;" parent="0RcedpETYWQIQaAl0rTX-1" vertex="1">
                    <mxGeometry x="980.3600000000001" y="191" width="170" height="20" as="geometry"/>
                </mxCell>
                <mxCell id="zUA3ccWD0WjfKzH4NpSP-3" value="" style="whiteSpace=wrap;html=1;rounded=1;shadow=0;fontSize=23;strokeWidth=2;" parent="0RcedpETYWQIQaAl0rTX-1" vertex="1">
                    <mxGeometry x="1260" y="136" width="220" height="90" as="geometry"/>
                </mxCell>
                <mxCell id="zUA3ccWD0WjfKzH4NpSP-4" value="&lt;b style=&quot;font-size: 25px;&quot;&gt;HR&lt;/b&gt;" style="text;html=1;resizable=0;autosize=1;align=center;verticalAlign=middle;points=[];fillColor=none;strokeColor=none;rounded=0;shadow=0;fontSize=25;" parent="0RcedpETYWQIQaAl0rTX-1" vertex="1">
                    <mxGeometry x="1278" y="146" width="50" height="40" as="geometry"/>
                </mxCell>
                <mxCell id="zUA3ccWD0WjfKzH4NpSP-5" value="Số&amp;nbsp; lượng nhân viên:3" style="text;html=1;resizable=0;autosize=1;align=center;verticalAlign=middle;points=[];fillColor=none;strokeColor=none;rounded=0;shadow=0;fontSize=16;" parent="0RcedpETYWQIQaAl0rTX-1" vertex="1">
                    <mxGeometry x="1287" y="191" width="170" height="20" as="geometry"/>
                </mxCell>
                <mxCell id="zUA3ccWD0WjfKzH4NpSP-6" value="" style="rounded=1;whiteSpace=wrap;html=1;shadow=0;fontSize=23;strokeWidth=2;" parent="0RcedpETYWQIQaAl0rTX-1" vertex="1">
                    <mxGeometry x="1020" y="557" width="340" height="90" as="geometry"/>
                </mxCell>
                <mxCell id="zUA3ccWD0WjfKzH4NpSP-7" value="&lt;b style=&quot;font-size: 25px;&quot;&gt;Sale&lt;/b&gt;" style="text;html=1;resizable=0;autosize=1;align=center;verticalAlign=middle;points=[];fillColor=none;strokeColor=none;rounded=0;shadow=0;fontSize=25;" parent="0RcedpETYWQIQaAl0rTX-1" vertex="1">
                    <mxGeometry x="1030.7" y="567" width="70" height="40" as="geometry"/>
                </mxCell>
                <mxCell id="zUA3ccWD0WjfKzH4NpSP-8" value="Số&amp;nbsp; lượng nhân viên:1" style="text;html=1;resizable=0;autosize=1;align=center;verticalAlign=middle;points=[];fillColor=none;strokeColor=none;rounded=0;shadow=0;fontSize=16;" parent="0RcedpETYWQIQaAl0rTX-1" vertex="1">
                    <mxGeometry x="1040.3600000000001" y="612" width="170" height="20" as="geometry"/>
                </mxCell>
            </root>
        </mxGraphModel>
    </diagram>
    <diagram id="Qrw2aQJdSvu2Jp0_UyPb" name="ページ5">
        <mxGraphModel dx="673" dy="436" grid="1" gridSize="10" guides="1" tooltips="1" connect="1" arrows="1" fold="1" page="1" pageScale="1" pageWidth="827" pageHeight="1169" math="0" shadow="0">
            <root>
                <mxCell id="tP0cujVijr_YcvBs8D4t-0"/>
                <mxCell id="tP0cujVijr_YcvBs8D4t-1" parent="tP0cujVijr_YcvBs8D4t-0"/>
                <mxCell id="Sy8DXpI0ljs16eXMbV7t-8" value="" style="whiteSpace=wrap;html=1;shadow=0;fontSize=27;strokeWidth=2;labelBorderColor=none;fillColor=#D1C4E9;strokeColor=#D1C4E9;spacingBottom=-1;" parent="tP0cujVijr_YcvBs8D4t-1" vertex="1">
                    <mxGeometry x="41" y="920" width="760" height="200" as="geometry"/>
                </mxCell>
                <mxCell id="Sy8DXpI0ljs16eXMbV7t-0" value="" style="whiteSpace=wrap;html=1;fillColor=#512DA8;strokeColor=#4C0099;" parent="tP0cujVijr_YcvBs8D4t-1" vertex="1">
                    <mxGeometry x="40" y="42" width="760" height="70" as="geometry"/>
                </mxCell>
                <mxCell id="Sy8DXpI0ljs16eXMbV7t-1" value="Phòng&amp;nbsp; Ban" style="text;html=1;resizable=0;autosize=1;align=center;verticalAlign=middle;points=[];fillColor=none;strokeColor=none;perimeterSpacing=1;strokeWidth=2;fontSize=16;" parent="tP0cujVijr_YcvBs8D4t-1" vertex="1">
                    <mxGeometry x="402" y="70" width="100" height="20" as="geometry"/>
                </mxCell>
                <mxCell id="Sy8DXpI0ljs16eXMbV7t-2" value="Bảng&amp;nbsp; Lương" style="text;html=1;resizable=0;autosize=1;align=center;verticalAlign=middle;points=[];fillColor=none;strokeColor=none;fontSize=16;fontColor=#FFFFFF;" parent="tP0cujVijr_YcvBs8D4t-1" vertex="1">
                    <mxGeometry x="527" y="70" width="110" height="20" as="geometry"/>
                </mxCell>
                <mxCell id="Sy8DXpI0ljs16eXMbV7t-3" value="Nhân&amp;nbsp; Viên" style="text;html=1;resizable=0;autosize=1;align=center;verticalAlign=middle;points=[];fillColor=none;strokeColor=none;shadow=0;fontSize=16;" parent="tP0cujVijr_YcvBs8D4t-1" vertex="1">
                    <mxGeometry x="282" y="70" width="90" height="20" as="geometry"/>
                </mxCell>
                <mxCell id="Sy8DXpI0ljs16eXMbV7t-4" value="Logo" style="ellipse;shape=cloud;whiteSpace=wrap;html=1;fontSize=11;" parent="tP0cujVijr_YcvBs8D4t-1" vertex="1">
                    <mxGeometry x="89" y="54.5" width="53" height="45" as="geometry"/>
                </mxCell>
                <mxCell id="Sy8DXpI0ljs16eXMbV7t-5" value="" style="html=1;verticalLabelPosition=bottom;align=center;labelBackgroundColor=#ffffff;verticalAlign=top;strokeWidth=2;strokeColor=#0080F0;shadow=0;dashed=0;shape=mxgraph.ios7.icons.user;fontSize=11;" parent="tP0cujVijr_YcvBs8D4t-1" vertex="1">
                    <mxGeometry x="260" y="67" width="25" height="22" as="geometry"/>
                </mxCell>
                <mxCell id="Sy8DXpI0ljs16eXMbV7t-6" value="" style="html=1;verticalLabelPosition=bottom;align=center;labelBackgroundColor=#ffffff;verticalAlign=top;strokeWidth=2;strokeColor=#0080F0;shadow=0;dashed=0;shape=mxgraph.ios7.icons.credit_card;" parent="tP0cujVijr_YcvBs8D4t-1" vertex="1">
                    <mxGeometry x="382" y="68" width="23" height="18" as="geometry"/>
                </mxCell>
                <mxCell id="Sy8DXpI0ljs16eXMbV7t-7" value="" style="html=1;verticalLabelPosition=bottom;align=center;labelBackgroundColor=#ffffff;verticalAlign=top;strokeWidth=2;strokeColor=#0080F0;shadow=0;dashed=0;shape=mxgraph.ios7.icons.wallet;" parent="tP0cujVijr_YcvBs8D4t-1" vertex="1">
                    <mxGeometry x="510" y="70" width="21" height="18" as="geometry"/>
                </mxCell>
                <mxCell id="Sy8DXpI0ljs16eXMbV7t-9" value="&lt;b&gt;Our Address&lt;/b&gt;" style="text;html=1;resizable=0;autosize=1;align=center;verticalAlign=middle;points=[];fillColor=none;strokeColor=none;shadow=0;fontSize=16;" parent="tP0cujVijr_YcvBs8D4t-1" vertex="1">
                    <mxGeometry x="198" y="941" width="110" height="20" as="geometry"/>
                </mxCell>
                <mxCell id="Sy8DXpI0ljs16eXMbV7t-10" value="121, Clear Water Bay Road&lt;br style=&quot;font-size: 11px;&quot;&gt;Clear Water Bay, Kowloon&lt;br style=&quot;font-size: 11px;&quot;&gt;HONG KONG&lt;br style=&quot;font-size: 11px;&quot;&gt;" style="text;html=1;resizable=0;autosize=1;align=center;verticalAlign=middle;points=[];fillColor=none;strokeColor=none;shadow=0;fontSize=11;" parent="tP0cujVijr_YcvBs8D4t-1" vertex="1">
                    <mxGeometry x="197" y="968" width="150" height="40" as="geometry"/>
                </mxCell>
                <mxCell id="Sy8DXpI0ljs16eXMbV7t-11" value="+85212345678" style="text;html=1;resizable=0;autosize=1;align=center;verticalAlign=middle;points=[];fillColor=none;strokeColor=none;shadow=0;fontSize=13;" parent="tP0cujVijr_YcvBs8D4t-1" vertex="1">
                    <mxGeometry x="218" y="1008" width="100" height="20" as="geometry"/>
                </mxCell>
                <mxCell id="Sy8DXpI0ljs16eXMbV7t-12" value="+85287654321" style="text;html=1;resizable=0;autosize=1;align=center;verticalAlign=middle;points=[];fillColor=none;strokeColor=none;shadow=0;fontSize=13;" parent="tP0cujVijr_YcvBs8D4t-1" vertex="1">
                    <mxGeometry x="221" y="1029" width="100" height="20" as="geometry"/>
                </mxCell>
                <mxCell id="Sy8DXpI0ljs16eXMbV7t-13" value="&lt;u&gt;&lt;font color=&quot;#0000ff&quot;&gt;confusion@food.net&lt;/font&gt;&lt;/u&gt;" style="text;html=1;resizable=0;autosize=1;align=center;verticalAlign=middle;points=[];fillColor=none;strokeColor=none;shadow=0;fontSize=13;" parent="tP0cujVijr_YcvBs8D4t-1" vertex="1">
                    <mxGeometry x="220" y="1047" width="130" height="20" as="geometry"/>
                </mxCell>
                <mxCell id="Sy8DXpI0ljs16eXMbV7t-14" value="" style="shape=mxgraph.signs.tech.cell_phone;html=1;pointerEvents=1;fillColor=#000000;strokeColor=none;verticalLabelPosition=bottom;verticalAlign=top;align=center;shadow=0;fontSize=13;" parent="tP0cujVijr_YcvBs8D4t-1" vertex="1">
                    <mxGeometry x="206" y="1008" width="12" height="18" as="geometry"/>
                </mxCell>
                <mxCell id="Sy8DXpI0ljs16eXMbV7t-15" value="" style="verticalLabelPosition=bottom;aspect=fixed;html=1;verticalAlign=top;strokeColor=none;align=center;outlineConnect=0;shape=mxgraph.citrix.ip_phone;shadow=0;fontSize=13;" parent="tP0cujVijr_YcvBs8D4t-1" vertex="1">
                    <mxGeometry x="202.34" y="1035" width="18.59" height="9" as="geometry"/>
                </mxCell>
                <mxCell id="Sy8DXpI0ljs16eXMbV7t-16" value="" style="shape=mxgraph.signs.tech.mail;html=1;pointerEvents=1;fillColor=#000000;strokeColor=none;verticalLabelPosition=bottom;verticalAlign=top;align=center;shadow=0;fontSize=13;" parent="tP0cujVijr_YcvBs8D4t-1" vertex="1">
                    <mxGeometry x="130" y="830" width="24.34" as="geometry"/>
                </mxCell>
                <mxCell id="Sy8DXpI0ljs16eXMbV7t-17" value="" style="shape=mxgraph.signs.tech.mail;html=1;pointerEvents=1;fillColor=#000000;strokeColor=none;verticalLabelPosition=bottom;verticalAlign=top;align=center;shadow=0;fontSize=16;" parent="tP0cujVijr_YcvBs8D4t-1" vertex="1">
                    <mxGeometry x="205" y="1056" width="16" height="8" as="geometry"/>
                </mxCell>
                <mxCell id="Sy8DXpI0ljs16eXMbV7t-18" value="Copyright 2008 Ristorante Con Fusion" style="text;html=1;resizable=0;autosize=1;align=center;verticalAlign=middle;points=[];fillColor=none;strokeColor=none;shadow=0;fontSize=12;" parent="tP0cujVijr_YcvBs8D4t-1" vertex="1">
                    <mxGeometry x="318" y="1080" width="220" height="20" as="geometry"/>
                </mxCell>
                <mxCell id="Sy8DXpI0ljs16eXMbV7t-19" value="" style="dashed=0;outlineConnect=0;html=1;align=center;labelPosition=center;verticalLabelPosition=bottom;verticalAlign=top;shape=mxgraph.webicons.facebook;fillColor=#6294E4;gradientColor=#1A2665;shadow=0;fontSize=12;strokeWidth=2;" parent="tP0cujVijr_YcvBs8D4t-1" vertex="1">
                    <mxGeometry x="602" y="990" width="30" height="30" as="geometry"/>
                </mxCell>
                <mxCell id="Sy8DXpI0ljs16eXMbV7t-20" value="" style="dashed=0;outlineConnect=0;html=1;align=center;labelPosition=center;verticalLabelPosition=bottom;verticalAlign=top;shape=mxgraph.weblogos.youtube;fillColor=#FF2626;gradientColor=#B5171F;shadow=0;fontSize=12;strokeWidth=2;" parent="tP0cujVijr_YcvBs8D4t-1" vertex="1">
                    <mxGeometry x="698" y="990" width="30" height="30" as="geometry"/>
                </mxCell>
                <mxCell id="Sy8DXpI0ljs16eXMbV7t-21" value="" style="dashed=0;outlineConnect=0;html=1;align=center;labelPosition=center;verticalLabelPosition=bottom;verticalAlign=top;shape=mxgraph.webicons.twitter;fillColor=#49EAF7;gradientColor=#137BD0;shadow=0;fontSize=12;strokeWidth=2;" parent="tP0cujVijr_YcvBs8D4t-1" vertex="1">
                    <mxGeometry x="664" y="990" width="30" height="30" as="geometry"/>
                </mxCell>
                <mxCell id="Sy8DXpI0ljs16eXMbV7t-22" value="" style="dashed=0;outlineConnect=0;html=1;align=center;labelPosition=center;verticalLabelPosition=bottom;verticalAlign=top;shape=mxgraph.webicons.gmail;gradientColor=#DFDEDE;shadow=0;fontSize=12;strokeWidth=2;" parent="tP0cujVijr_YcvBs8D4t-1" vertex="1">
                    <mxGeometry x="728" y="990" width="30" height="30" as="geometry"/>
                </mxCell>
                <mxCell id="Sy8DXpI0ljs16eXMbV7t-23" value="" style="pointerEvents=1;shadow=0;dashed=0;html=1;strokeColor=none;fillColor=#505050;labelPosition=center;verticalLabelPosition=bottom;verticalAlign=top;outlineConnect=0;align=center;shape=mxgraph.office.concepts.home;fontSize=11;" parent="tP0cujVijr_YcvBs8D4t-1" vertex="1">
                    <mxGeometry x="145" y="68" width="24" height="19" as="geometry"/>
                </mxCell>
                <mxCell id="Sy8DXpI0ljs16eXMbV7t-24" value="Trang chủ" style="text;html=1;resizable=0;autosize=1;align=center;verticalAlign=middle;points=[];fillColor=none;strokeColor=none;fontSize=16;" parent="tP0cujVijr_YcvBs8D4t-1" vertex="1">
                    <mxGeometry x="164" y="70" width="90" height="20" as="geometry"/>
                </mxCell>
                <mxCell id="Sy8DXpI0ljs16eXMbV7t-25" value="" style="whiteSpace=wrap;html=1;fontSize=16;fontColor=#000000;strokeWidth=2;fillColor=#A9D9EC;strokeColor=#A9D9EC;" parent="tP0cujVijr_YcvBs8D4t-1" vertex="1">
                    <mxGeometry x="40" y="113" width="760" height="807" as="geometry"/>
                </mxCell>
                <mxCell id="Sy8DXpI0ljs16eXMbV7t-26" value="" style="dashed=0;outlineConnect=0;html=1;align=center;labelPosition=center;verticalLabelPosition=bottom;verticalAlign=top;shape=mxgraph.weblogos.google_plus;fillColor=#DD4C40;strokeColor=none;fontSize=16;fontColor=#000000;" parent="tP0cujVijr_YcvBs8D4t-1" vertex="1">
                    <mxGeometry x="570" y="990" width="30" height="30" as="geometry"/>
                </mxCell>
                <mxCell id="Sy8DXpI0ljs16eXMbV7t-27" value="" style="dashed=0;outlineConnect=0;html=1;align=center;labelPosition=center;verticalLabelPosition=bottom;verticalAlign=top;shape=mxgraph.weblogos.linkedin;fillColor=#0095DB;gradientColor=#006391;fontSize=16;fontColor=#000000;strokeColor=#D1C4E9;strokeWidth=2;" parent="tP0cujVijr_YcvBs8D4t-1" vertex="1">
                    <mxGeometry x="634" y="990" width="30" height="30" as="geometry"/>
                </mxCell>
                <mxCell id="Sy8DXpI0ljs16eXMbV7t-28" value="" style="whiteSpace=wrap;html=1;fontSize=16;strokeWidth=2;strokeColor=#FFFFFF;" parent="tP0cujVijr_YcvBs8D4t-1" vertex="1">
                    <mxGeometry x="61" y="113" width="145.5" height="37" as="geometry"/>
                </mxCell>
                <mxCell id="Sy8DXpI0ljs16eXMbV7t-29" value="&lt;font style=&quot;font-size: 11px&quot; color=&quot;#0000ff&quot;&gt;Trang chủ&lt;/font&gt;&lt;font color=&quot;#000000&quot; style=&quot;font-size: 11px&quot;&gt; /&lt;/font&gt;&lt;font style=&quot;font-size: 11px&quot; color=&quot;#333333&quot;&gt;&amp;nbsp;Bảng Lương&lt;/font&gt;" style="text;html=1;resizable=0;autosize=1;align=center;verticalAlign=middle;points=[];fillColor=none;strokeColor=none;fontSize=16;fontColor=#FFFFFF;spacingBottom=1;" parent="tP0cujVijr_YcvBs8D4t-1" vertex="1">
                    <mxGeometry x="62" y="116.5" width="140" height="30" as="geometry"/>
                </mxCell>
                <mxCell id="Sy8DXpI0ljs16eXMbV7t-30" value="&lt;font color=&quot;#000000&quot;&gt;Bảng Lương&lt;/font&gt;" style="text;html=1;resizable=0;autosize=1;align=center;verticalAlign=middle;points=[];fillColor=none;strokeColor=none;fontSize=16;fontColor=#FFFFFF;" parent="tP0cujVijr_YcvBs8D4t-1" vertex="1">
                    <mxGeometry x="65" y="160" width="110" height="20" as="geometry"/>
                </mxCell>
                <mxCell id="Sy8DXpI0ljs16eXMbV7t-31" value="" style="endArrow=none;html=1;fontSize=27;fontColor=#333333;strokeColor=#808080;" parent="tP0cujVijr_YcvBs8D4t-1" edge="1">
                    <mxGeometry width="50" height="50" relative="1" as="geometry">
                        <mxPoint x="83.00000000000011" y="189.9999999999999" as="sourcePoint"/>
                        <mxPoint x="762" y="189.9999999999999" as="targetPoint"/>
                    </mxGeometry>
                </mxCell>
                <mxCell id="Sy8DXpI0ljs16eXMbV7t-62" value="" style="rounded=1;whiteSpace=wrap;html=1;shadow=0;fontSize=12;strokeWidth=2;" parent="tP0cujVijr_YcvBs8D4t-1" vertex="1">
                    <mxGeometry x="890" y="60" width="600" height="320" as="geometry"/>
                </mxCell>
                <mxCell id="Sy8DXpI0ljs16eXMbV7t-69" value="Tablet" style="text;html=1;resizable=0;autosize=1;align=center;verticalAlign=middle;points=[];fillColor=none;strokeColor=none;rounded=0;shadow=0;fontSize=30;" parent="tP0cujVijr_YcvBs8D4t-1" vertex="1">
                    <mxGeometry x="1130" y="99.5" width="100" height="40" as="geometry"/>
                </mxCell>
                <mxCell id="Sy8DXpI0ljs16eXMbV7t-70" value="" style="rounded=1;whiteSpace=wrap;html=1;shadow=0;fontSize=30;strokeWidth=2;" parent="tP0cujVijr_YcvBs8D4t-1" vertex="1">
                    <mxGeometry x="960" y="480" width="420" height="240" as="geometry"/>
                </mxCell>
                <mxCell id="Sy8DXpI0ljs16eXMbV7t-75" value="Mobile" style="text;html=1;resizable=0;autosize=1;align=center;verticalAlign=middle;points=[];fillColor=none;strokeColor=none;rounded=0;shadow=0;fontSize=30;" parent="tP0cujVijr_YcvBs8D4t-1" vertex="1">
                    <mxGeometry x="1130" y="490" width="100" height="40" as="geometry"/>
                </mxCell>
                <mxCell id="Sy8DXpI0ljs16eXMbV7t-76" value="" style="endArrow=classic;startArrow=classic;html=1;fontColor=#333333;strokeColor=#808080;" parent="tP0cujVijr_YcvBs8D4t-1" edge="1">
                    <mxGeometry width="50" height="50" relative="1" as="geometry">
                        <mxPoint x="810" y="390" as="sourcePoint"/>
                        <mxPoint x="870" y="340" as="targetPoint"/>
                    </mxGeometry>
                </mxCell>
                <mxCell id="Sy8DXpI0ljs16eXMbV7t-77" value="" style="endArrow=classic;startArrow=classic;html=1;fontColor=#333333;strokeColor=#808080;" parent="tP0cujVijr_YcvBs8D4t-1" edge="1">
                    <mxGeometry width="50" height="50" relative="1" as="geometry">
                        <mxPoint x="810" y="440" as="sourcePoint"/>
                        <mxPoint x="940" y="540" as="targetPoint"/>
                    </mxGeometry>
                </mxCell>
                <mxCell id="zOokp8QVIZ-v-QNMmdNp-0" value="" style="strokeWidth=1;shadow=0;dashed=0;align=center;html=1;shape=mxgraph.mockup.forms.rrect;rSize=0;strokeColor=#999999;fillColor=#ffffff;fontSize=17;fontColor=#FFFFFF;" parent="tP0cujVijr_YcvBs8D4t-1" vertex="1">
                    <mxGeometry x="100" y="210" width="180" height="130" as="geometry"/>
                </mxCell>
                <mxCell id="zOokp8QVIZ-v-QNMmdNp-1" value="Nguyễn&amp;nbsp; Văn&amp;nbsp; A" style="strokeWidth=1;shadow=0;dashed=0;align=center;html=1;shape=mxgraph.mockup.forms.rrect;rSize=0;strokeColor=#999999;fontColor=#008cff;fontSize=17;fillColor=#ffffff;resizeWidth=1;fontStyle=1" parent="zOokp8QVIZ-v-QNMmdNp-0" vertex="1">
                    <mxGeometry width="180" height="30" relative="1" as="geometry"/>
                </mxCell>
                <mxCell id="zOokp8QVIZ-v-QNMmdNp-2" value="Mã&amp;nbsp; nhân&amp;nbsp; viên: 0" style="strokeWidth=1;shadow=0;dashed=0;align=center;html=1;shape=mxgraph.mockup.forms.anchor;fontSize=15;fontColor=#666666;align=left;spacingLeft=5;resizeWidth=1;" parent="zOokp8QVIZ-v-QNMmdNp-0" vertex="1">
                    <mxGeometry width="180" height="20" relative="1" as="geometry">
                        <mxPoint y="30" as="offset"/>
                    </mxGeometry>
                </mxCell>
                <mxCell id="zOokp8QVIZ-v-QNMmdNp-3" value="Hệ&amp;nbsp; số&amp;nbsp; lương: 1" style="strokeWidth=1;shadow=0;dashed=0;align=center;html=1;shape=mxgraph.mockup.forms.anchor;fontSize=15;fontColor=#666666;align=left;spacingLeft=5;resizeWidth=1;" parent="zOokp8QVIZ-v-QNMmdNp-0" vertex="1">
                    <mxGeometry width="180" height="20" relative="1" as="geometry">
                        <mxPoint y="50" as="offset"/>
                    </mxGeometry>
                </mxCell>
                <mxCell id="zOokp8QVIZ-v-QNMmdNp-4" value="Số&amp;nbsp; giờ&amp;nbsp; làm&amp;nbsp; thêm:1" style="strokeWidth=1;shadow=0;dashed=0;align=center;html=1;shape=mxgraph.mockup.forms.rrect;rSize=0;fontSize=15;fontColor=#666666;align=left;spacingLeft=5;strokeColor=none;resizeWidth=1;fillColor=#FFFFFF;" parent="zOokp8QVIZ-v-QNMmdNp-0" vertex="1">
                    <mxGeometry width="180" height="20" relative="1" as="geometry">
                        <mxPoint y="70" as="offset"/>
                    </mxGeometry>
                </mxCell>
                <mxCell id="zOokp8QVIZ-v-QNMmdNp-5" value="Lương: 3200000" style="strokeWidth=1;shadow=0;dashed=0;align=center;html=1;shape=mxgraph.mockup.forms.anchor;fontSize=17;align=left;spacingLeft=5;resizeWidth=1;fillColor=#dae8fc;strokeColor=#6c8ebf;" parent="zOokp8QVIZ-v-QNMmdNp-0" vertex="1">
                    <mxGeometry width="175.2" height="35" relative="1" as="geometry">
                        <mxPoint y="90" as="offset"/>
                    </mxGeometry>
                </mxCell>
                <mxCell id="zOokp8QVIZ-v-QNMmdNp-6" value="" style="strokeWidth=1;shadow=0;dashed=0;align=center;html=1;shape=mxgraph.mockup.forms.rrect;rSize=0;strokeColor=#999999;fillColor=#ffffff;fontSize=17;fontColor=#FFFFFF;" parent="tP0cujVijr_YcvBs8D4t-1" vertex="1">
                    <mxGeometry x="320" y="210" width="190" height="130" as="geometry"/>
                </mxCell>
                <mxCell id="zOokp8QVIZ-v-QNMmdNp-7" value="Nguyễn&amp;nbsp; Văn&amp;nbsp; A" style="strokeWidth=1;shadow=0;dashed=0;align=center;html=1;shape=mxgraph.mockup.forms.rrect;rSize=0;strokeColor=#999999;fontColor=#008cff;fontSize=17;fillColor=#ffffff;resizeWidth=1;fontStyle=1" parent="zOokp8QVIZ-v-QNMmdNp-6" vertex="1">
                    <mxGeometry width="190" height="30" relative="1" as="geometry"/>
                </mxCell>
                <mxCell id="zOokp8QVIZ-v-QNMmdNp-8" value="Mã&amp;nbsp; nhân&amp;nbsp; viên: 0" style="strokeWidth=1;shadow=0;dashed=0;align=center;html=1;shape=mxgraph.mockup.forms.anchor;fontSize=15;fontColor=#666666;align=left;spacingLeft=5;resizeWidth=1;" parent="zOokp8QVIZ-v-QNMmdNp-6" vertex="1">
                    <mxGeometry width="190" height="20" relative="1" as="geometry">
                        <mxPoint y="30" as="offset"/>
                    </mxGeometry>
                </mxCell>
                <mxCell id="zOokp8QVIZ-v-QNMmdNp-9" value="Hệ&amp;nbsp; số&amp;nbsp; lương: 1" style="strokeWidth=1;shadow=0;dashed=0;align=center;html=1;shape=mxgraph.mockup.forms.anchor;fontSize=15;fontColor=#666666;align=left;spacingLeft=5;resizeWidth=1;" parent="zOokp8QVIZ-v-QNMmdNp-6" vertex="1">
                    <mxGeometry width="190" height="20" relative="1" as="geometry">
                        <mxPoint y="50" as="offset"/>
                    </mxGeometry>
                </mxCell>
                <mxCell id="zOokp8QVIZ-v-QNMmdNp-10" value="Số&amp;nbsp; giờ&amp;nbsp; làm&amp;nbsp; thêm:1" style="strokeWidth=1;shadow=0;dashed=0;align=center;html=1;shape=mxgraph.mockup.forms.rrect;rSize=0;fontSize=15;fontColor=#666666;align=left;spacingLeft=5;strokeColor=none;resizeWidth=1;fillColor=#FFFFFF;" parent="zOokp8QVIZ-v-QNMmdNp-6" vertex="1">
                    <mxGeometry width="190" height="20" relative="1" as="geometry">
                        <mxPoint y="70" as="offset"/>
                    </mxGeometry>
                </mxCell>
                <mxCell id="zOokp8QVIZ-v-QNMmdNp-11" value="Lương: 3200000" style="strokeWidth=1;shadow=0;dashed=0;align=center;html=1;shape=mxgraph.mockup.forms.anchor;fontSize=17;align=left;spacingLeft=5;resizeWidth=1;fillColor=#dae8fc;strokeColor=#6c8ebf;" parent="zOokp8QVIZ-v-QNMmdNp-6" vertex="1">
                    <mxGeometry width="184.93333333333334" height="35" relative="1" as="geometry">
                        <mxPoint y="90" as="offset"/>
                    </mxGeometry>
                </mxCell>
                <mxCell id="zOokp8QVIZ-v-QNMmdNp-12" value="" style="strokeWidth=1;shadow=0;dashed=0;align=center;html=1;shape=mxgraph.mockup.forms.rrect;rSize=0;strokeColor=#999999;fillColor=#ffffff;fontSize=17;fontColor=#FFFFFF;" parent="tP0cujVijr_YcvBs8D4t-1" vertex="1">
                    <mxGeometry x="560" y="210" width="180" height="130" as="geometry"/>
                </mxCell>
                <mxCell id="zOokp8QVIZ-v-QNMmdNp-13" value="Nguyễn&amp;nbsp; Văn&amp;nbsp; A" style="strokeWidth=1;shadow=0;dashed=0;align=center;html=1;shape=mxgraph.mockup.forms.rrect;rSize=0;strokeColor=#999999;fontColor=#008cff;fontSize=17;fillColor=#ffffff;resizeWidth=1;fontStyle=1" parent="zOokp8QVIZ-v-QNMmdNp-12" vertex="1">
                    <mxGeometry width="180" height="30" relative="1" as="geometry"/>
                </mxCell>
                <mxCell id="zOokp8QVIZ-v-QNMmdNp-14" value="Mã&amp;nbsp; nhân&amp;nbsp; viên: 0" style="strokeWidth=1;shadow=0;dashed=0;align=center;html=1;shape=mxgraph.mockup.forms.anchor;fontSize=15;fontColor=#666666;align=left;spacingLeft=5;resizeWidth=1;" parent="zOokp8QVIZ-v-QNMmdNp-12" vertex="1">
                    <mxGeometry width="180" height="20" relative="1" as="geometry">
                        <mxPoint y="30" as="offset"/>
                    </mxGeometry>
                </mxCell>
                <mxCell id="zOokp8QVIZ-v-QNMmdNp-15" value="Hệ&amp;nbsp; số&amp;nbsp; lương: 1" style="strokeWidth=1;shadow=0;dashed=0;align=center;html=1;shape=mxgraph.mockup.forms.anchor;fontSize=15;fontColor=#666666;align=left;spacingLeft=5;resizeWidth=1;" parent="zOokp8QVIZ-v-QNMmdNp-12" vertex="1">
                    <mxGeometry width="180" height="20" relative="1" as="geometry">
                        <mxPoint y="50" as="offset"/>
                    </mxGeometry>
                </mxCell>
                <mxCell id="zOokp8QVIZ-v-QNMmdNp-16" value="Số&amp;nbsp; giờ&amp;nbsp; làm&amp;nbsp; thêm:1" style="strokeWidth=1;shadow=0;dashed=0;align=center;html=1;shape=mxgraph.mockup.forms.rrect;rSize=0;fontSize=15;fontColor=#666666;align=left;spacingLeft=5;strokeColor=none;resizeWidth=1;fillColor=#FFFFFF;" parent="zOokp8QVIZ-v-QNMmdNp-12" vertex="1">
                    <mxGeometry width="180" height="20" relative="1" as="geometry">
                        <mxPoint y="70" as="offset"/>
                    </mxGeometry>
                </mxCell>
                <mxCell id="zOokp8QVIZ-v-QNMmdNp-17" value="Lương: 3200000" style="strokeWidth=1;shadow=0;dashed=0;align=center;html=1;shape=mxgraph.mockup.forms.anchor;fontSize=17;align=left;spacingLeft=5;resizeWidth=1;fillColor=#dae8fc;strokeColor=#6c8ebf;" parent="zOokp8QVIZ-v-QNMmdNp-12" vertex="1">
                    <mxGeometry width="175.2" height="35" relative="1" as="geometry">
                        <mxPoint y="90" as="offset"/>
                    </mxGeometry>
                </mxCell>
                <mxCell id="zOokp8QVIZ-v-QNMmdNp-92" value="" style="strokeWidth=1;shadow=0;dashed=0;align=center;html=1;shape=mxgraph.mockup.forms.rrect;rSize=0;strokeColor=#999999;fillColor=#ffffff;fontSize=17;fontColor=#FFFFFF;" parent="tP0cujVijr_YcvBs8D4t-1" vertex="1">
                    <mxGeometry x="920" y="190" width="230" height="130" as="geometry"/>
                </mxCell>
                <mxCell id="zOokp8QVIZ-v-QNMmdNp-93" value="Nguyễn&amp;nbsp; Văn&amp;nbsp; A" style="strokeWidth=1;shadow=0;dashed=0;align=center;html=1;shape=mxgraph.mockup.forms.rrect;rSize=0;strokeColor=#999999;fontColor=#008cff;fontSize=17;fillColor=#ffffff;resizeWidth=1;fontStyle=1" parent="zOokp8QVIZ-v-QNMmdNp-92" vertex="1">
                    <mxGeometry width="230.00000000000003" height="30" relative="1" as="geometry"/>
                </mxCell>
                <mxCell id="zOokp8QVIZ-v-QNMmdNp-94" value="Mã&amp;nbsp; nhân&amp;nbsp; viên: 0" style="strokeWidth=1;shadow=0;dashed=0;align=center;html=1;shape=mxgraph.mockup.forms.anchor;fontSize=15;fontColor=#666666;align=left;spacingLeft=5;resizeWidth=1;" parent="zOokp8QVIZ-v-QNMmdNp-92" vertex="1">
                    <mxGeometry width="230.00000000000003" height="20" relative="1" as="geometry">
                        <mxPoint y="30" as="offset"/>
                    </mxGeometry>
                </mxCell>
                <mxCell id="zOokp8QVIZ-v-QNMmdNp-95" value="Hệ&amp;nbsp; số&amp;nbsp; lương: 1" style="strokeWidth=1;shadow=0;dashed=0;align=center;html=1;shape=mxgraph.mockup.forms.anchor;fontSize=15;fontColor=#666666;align=left;spacingLeft=5;resizeWidth=1;" parent="zOokp8QVIZ-v-QNMmdNp-92" vertex="1">
                    <mxGeometry width="230.00000000000003" height="20" relative="1" as="geometry">
                        <mxPoint y="50" as="offset"/>
                    </mxGeometry>
                </mxCell>
                <mxCell id="zOokp8QVIZ-v-QNMmdNp-96" value="Số&amp;nbsp; giờ&amp;nbsp; làm&amp;nbsp; thêm:1" style="strokeWidth=1;shadow=0;dashed=0;align=center;html=1;shape=mxgraph.mockup.forms.rrect;rSize=0;fontSize=15;fontColor=#666666;align=left;spacingLeft=5;strokeColor=none;resizeWidth=1;fillColor=#FFFFFF;" parent="zOokp8QVIZ-v-QNMmdNp-92" vertex="1">
                    <mxGeometry width="230.00000000000003" height="20" relative="1" as="geometry">
                        <mxPoint y="70" as="offset"/>
                    </mxGeometry>
                </mxCell>
                <mxCell id="zOokp8QVIZ-v-QNMmdNp-97" value="Lương: 3200000" style="strokeWidth=1;shadow=0;dashed=0;align=center;html=1;shape=mxgraph.mockup.forms.anchor;fontSize=17;align=left;spacingLeft=5;resizeWidth=1;fillColor=#dae8fc;strokeColor=#6c8ebf;" parent="zOokp8QVIZ-v-QNMmdNp-92" vertex="1">
                    <mxGeometry width="223.86666666666667" height="35" relative="1" as="geometry">
                        <mxPoint y="90" as="offset"/>
                    </mxGeometry>
                </mxCell>
                <mxCell id="zOokp8QVIZ-v-QNMmdNp-98" value="" style="strokeWidth=1;shadow=0;dashed=0;align=center;html=1;shape=mxgraph.mockup.forms.rrect;rSize=0;strokeColor=#999999;fillColor=#ffffff;fontSize=17;fontColor=#FFFFFF;" parent="tP0cujVijr_YcvBs8D4t-1" vertex="1">
                    <mxGeometry x="1180" y="190" width="250" height="130" as="geometry"/>
                </mxCell>
                <mxCell id="zOokp8QVIZ-v-QNMmdNp-99" value="Nguyễn&amp;nbsp; Văn&amp;nbsp; A" style="strokeWidth=1;shadow=0;dashed=0;align=center;html=1;shape=mxgraph.mockup.forms.rrect;rSize=0;strokeColor=#999999;fontColor=#008cff;fontSize=17;fillColor=#ffffff;resizeWidth=1;fontStyle=1" parent="zOokp8QVIZ-v-QNMmdNp-98" vertex="1">
                    <mxGeometry width="250" height="30" relative="1" as="geometry"/>
                </mxCell>
                <mxCell id="zOokp8QVIZ-v-QNMmdNp-100" value="Mã&amp;nbsp; nhân&amp;nbsp; viên: 0" style="strokeWidth=1;shadow=0;dashed=0;align=center;html=1;shape=mxgraph.mockup.forms.anchor;fontSize=15;fontColor=#666666;align=left;spacingLeft=5;resizeWidth=1;" parent="zOokp8QVIZ-v-QNMmdNp-98" vertex="1">
                    <mxGeometry width="250" height="20" relative="1" as="geometry">
                        <mxPoint y="30" as="offset"/>
                    </mxGeometry>
                </mxCell>
                <mxCell id="zOokp8QVIZ-v-QNMmdNp-101" value="Hệ&amp;nbsp; số&amp;nbsp; lương: 1" style="strokeWidth=1;shadow=0;dashed=0;align=center;html=1;shape=mxgraph.mockup.forms.anchor;fontSize=15;fontColor=#666666;align=left;spacingLeft=5;resizeWidth=1;" parent="zOokp8QVIZ-v-QNMmdNp-98" vertex="1">
                    <mxGeometry width="250" height="20" relative="1" as="geometry">
                        <mxPoint y="50" as="offset"/>
                    </mxGeometry>
                </mxCell>
                <mxCell id="zOokp8QVIZ-v-QNMmdNp-102" value="Số&amp;nbsp; giờ&amp;nbsp; làm&amp;nbsp; thêm:1" style="strokeWidth=1;shadow=0;dashed=0;align=center;html=1;shape=mxgraph.mockup.forms.rrect;rSize=0;fontSize=15;fontColor=#666666;align=left;spacingLeft=5;strokeColor=none;resizeWidth=1;fillColor=#FFFFFF;" parent="zOokp8QVIZ-v-QNMmdNp-98" vertex="1">
                    <mxGeometry width="250" height="20" relative="1" as="geometry">
                        <mxPoint y="70" as="offset"/>
                    </mxGeometry>
                </mxCell>
                <mxCell id="zOokp8QVIZ-v-QNMmdNp-103" value="Lương: 3200000" style="strokeWidth=1;shadow=0;dashed=0;align=center;html=1;shape=mxgraph.mockup.forms.anchor;fontSize=17;align=left;spacingLeft=5;resizeWidth=1;fillColor=#dae8fc;strokeColor=#6c8ebf;" parent="zOokp8QVIZ-v-QNMmdNp-98" vertex="1">
                    <mxGeometry width="243.33333333333334" height="35" relative="1" as="geometry">
                        <mxPoint y="90" as="offset"/>
                    </mxGeometry>
                </mxCell>
                <mxCell id="zOokp8QVIZ-v-QNMmdNp-116" value="" style="strokeWidth=1;shadow=0;dashed=0;align=center;html=1;shape=mxgraph.mockup.forms.rrect;rSize=0;strokeColor=#999999;fillColor=#ffffff;fontSize=17;fontColor=#FFFFFF;" parent="tP0cujVijr_YcvBs8D4t-1" vertex="1">
                    <mxGeometry x="1010" y="550" width="330" height="130" as="geometry"/>
                </mxCell>
                <mxCell id="zOokp8QVIZ-v-QNMmdNp-117" value="Nguyễn&amp;nbsp; Văn&amp;nbsp; A" style="strokeWidth=1;shadow=0;dashed=0;align=center;html=1;shape=mxgraph.mockup.forms.rrect;rSize=0;strokeColor=#999999;fontColor=#008cff;fontSize=17;fillColor=#ffffff;resizeWidth=1;fontStyle=1" parent="zOokp8QVIZ-v-QNMmdNp-116" vertex="1">
                    <mxGeometry width="330" height="30" relative="1" as="geometry"/>
                </mxCell>
                <mxCell id="zOokp8QVIZ-v-QNMmdNp-118" value="Mã&amp;nbsp; nhân&amp;nbsp; viên: 0" style="strokeWidth=1;shadow=0;dashed=0;align=center;html=1;shape=mxgraph.mockup.forms.anchor;fontSize=15;fontColor=#666666;align=left;spacingLeft=5;resizeWidth=1;" parent="zOokp8QVIZ-v-QNMmdNp-116" vertex="1">
                    <mxGeometry width="330" height="20" relative="1" as="geometry">
                        <mxPoint y="30" as="offset"/>
                    </mxGeometry>
                </mxCell>
                <mxCell id="zOokp8QVIZ-v-QNMmdNp-119" value="Hệ&amp;nbsp; số&amp;nbsp; lương: 1" style="strokeWidth=1;shadow=0;dashed=0;align=center;html=1;shape=mxgraph.mockup.forms.anchor;fontSize=15;fontColor=#666666;align=left;spacingLeft=5;resizeWidth=1;" parent="zOokp8QVIZ-v-QNMmdNp-116" vertex="1">
                    <mxGeometry width="330" height="20" relative="1" as="geometry">
                        <mxPoint y="50" as="offset"/>
                    </mxGeometry>
                </mxCell>
                <mxCell id="zOokp8QVIZ-v-QNMmdNp-120" value="Số&amp;nbsp; giờ&amp;nbsp; làm&amp;nbsp; thêm:1" style="strokeWidth=1;shadow=0;dashed=0;align=center;html=1;shape=mxgraph.mockup.forms.rrect;rSize=0;fontSize=15;fontColor=#666666;align=left;spacingLeft=5;strokeColor=none;resizeWidth=1;fillColor=#FFFFFF;" parent="zOokp8QVIZ-v-QNMmdNp-116" vertex="1">
                    <mxGeometry width="330" height="20" relative="1" as="geometry">
                        <mxPoint y="70" as="offset"/>
                    </mxGeometry>
                </mxCell>
                <mxCell id="zOokp8QVIZ-v-QNMmdNp-121" value="Lương: 3200000" style="strokeWidth=1;shadow=0;dashed=0;align=center;html=1;shape=mxgraph.mockup.forms.anchor;fontSize=17;align=left;spacingLeft=5;resizeWidth=1;fillColor=#dae8fc;strokeColor=#6c8ebf;" parent="zOokp8QVIZ-v-QNMmdNp-116" vertex="1">
                    <mxGeometry width="321.2" height="35" relative="1" as="geometry">
                        <mxPoint y="90" as="offset"/>
                    </mxGeometry>
                </mxCell>
                <mxCell id="zOokp8QVIZ-v-QNMmdNp-122" value="" style="strokeWidth=1;shadow=0;dashed=0;align=center;html=1;shape=mxgraph.mockup.forms.rrect;rSize=0;strokeColor=#999999;fillColor=#ffffff;fontSize=17;fontColor=#FFFFFF;" parent="tP0cujVijr_YcvBs8D4t-1" vertex="1">
                    <mxGeometry x="100" y="350" width="180" height="130" as="geometry"/>
                </mxCell>
                <mxCell id="zOokp8QVIZ-v-QNMmdNp-123" value="Nguyễn&amp;nbsp; Văn&amp;nbsp; A" style="strokeWidth=1;shadow=0;dashed=0;align=center;html=1;shape=mxgraph.mockup.forms.rrect;rSize=0;strokeColor=#999999;fontColor=#008cff;fontSize=17;fillColor=#ffffff;resizeWidth=1;fontStyle=1" parent="zOokp8QVIZ-v-QNMmdNp-122" vertex="1">
                    <mxGeometry width="180" height="30" relative="1" as="geometry"/>
                </mxCell>
                <mxCell id="zOokp8QVIZ-v-QNMmdNp-124" value="Mã&amp;nbsp; nhân&amp;nbsp; viên: 0" style="strokeWidth=1;shadow=0;dashed=0;align=center;html=1;shape=mxgraph.mockup.forms.anchor;fontSize=15;fontColor=#666666;align=left;spacingLeft=5;resizeWidth=1;" parent="zOokp8QVIZ-v-QNMmdNp-122" vertex="1">
                    <mxGeometry width="180" height="20" relative="1" as="geometry">
                        <mxPoint y="30" as="offset"/>
                    </mxGeometry>
                </mxCell>
                <mxCell id="zOokp8QVIZ-v-QNMmdNp-125" value="Hệ&amp;nbsp; số&amp;nbsp; lương: 1" style="strokeWidth=1;shadow=0;dashed=0;align=center;html=1;shape=mxgraph.mockup.forms.anchor;fontSize=15;fontColor=#666666;align=left;spacingLeft=5;resizeWidth=1;" parent="zOokp8QVIZ-v-QNMmdNp-122" vertex="1">
                    <mxGeometry width="180" height="20" relative="1" as="geometry">
                        <mxPoint y="50" as="offset"/>
                    </mxGeometry>
                </mxCell>
                <mxCell id="zOokp8QVIZ-v-QNMmdNp-126" value="Số&amp;nbsp; giờ&amp;nbsp; làm&amp;nbsp; thêm:1" style="strokeWidth=1;shadow=0;dashed=0;align=center;html=1;shape=mxgraph.mockup.forms.rrect;rSize=0;fontSize=15;fontColor=#666666;align=left;spacingLeft=5;strokeColor=none;resizeWidth=1;fillColor=#FFFFFF;" parent="zOokp8QVIZ-v-QNMmdNp-122" vertex="1">
                    <mxGeometry width="180" height="20" relative="1" as="geometry">
                        <mxPoint y="70" as="offset"/>
                    </mxGeometry>
                </mxCell>
                <mxCell id="zOokp8QVIZ-v-QNMmdNp-127" value="Lương: 3200000" style="strokeWidth=1;shadow=0;dashed=0;align=center;html=1;shape=mxgraph.mockup.forms.anchor;fontSize=17;align=left;spacingLeft=5;resizeWidth=1;fillColor=#dae8fc;strokeColor=#6c8ebf;" parent="zOokp8QVIZ-v-QNMmdNp-122" vertex="1">
                    <mxGeometry width="175.2" height="35" relative="1" as="geometry">
                        <mxPoint y="90" as="offset"/>
                    </mxGeometry>
                </mxCell>
                <mxCell id="zOokp8QVIZ-v-QNMmdNp-128" value="" style="strokeWidth=1;shadow=0;dashed=0;align=center;html=1;shape=mxgraph.mockup.forms.rrect;rSize=0;strokeColor=#999999;fillColor=#ffffff;fontSize=17;fontColor=#FFFFFF;" parent="tP0cujVijr_YcvBs8D4t-1" vertex="1">
                    <mxGeometry x="320" y="350" width="190" height="130" as="geometry"/>
                </mxCell>
                <mxCell id="zOokp8QVIZ-v-QNMmdNp-129" value="Nguyễn&amp;nbsp; Văn&amp;nbsp; A" style="strokeWidth=1;shadow=0;dashed=0;align=center;html=1;shape=mxgraph.mockup.forms.rrect;rSize=0;strokeColor=#999999;fontColor=#008cff;fontSize=17;fillColor=#ffffff;resizeWidth=1;fontStyle=1" parent="zOokp8QVIZ-v-QNMmdNp-128" vertex="1">
                    <mxGeometry width="190" height="30" relative="1" as="geometry"/>
                </mxCell>
                <mxCell id="zOokp8QVIZ-v-QNMmdNp-130" value="Mã&amp;nbsp; nhân&amp;nbsp; viên: 0" style="strokeWidth=1;shadow=0;dashed=0;align=center;html=1;shape=mxgraph.mockup.forms.anchor;fontSize=15;fontColor=#666666;align=left;spacingLeft=5;resizeWidth=1;" parent="zOokp8QVIZ-v-QNMmdNp-128" vertex="1">
                    <mxGeometry width="190" height="20" relative="1" as="geometry">
                        <mxPoint y="30" as="offset"/>
                    </mxGeometry>
                </mxCell>
                <mxCell id="zOokp8QVIZ-v-QNMmdNp-131" value="Hệ&amp;nbsp; số&amp;nbsp; lương: 1" style="strokeWidth=1;shadow=0;dashed=0;align=center;html=1;shape=mxgraph.mockup.forms.anchor;fontSize=15;fontColor=#666666;align=left;spacingLeft=5;resizeWidth=1;" parent="zOokp8QVIZ-v-QNMmdNp-128" vertex="1">
                    <mxGeometry width="190" height="20" relative="1" as="geometry">
                        <mxPoint y="50" as="offset"/>
                    </mxGeometry>
                </mxCell>
                <mxCell id="zOokp8QVIZ-v-QNMmdNp-132" value="Số&amp;nbsp; giờ&amp;nbsp; làm&amp;nbsp; thêm:1" style="strokeWidth=1;shadow=0;dashed=0;align=center;html=1;shape=mxgraph.mockup.forms.rrect;rSize=0;fontSize=15;fontColor=#666666;align=left;spacingLeft=5;strokeColor=none;resizeWidth=1;fillColor=#FFFFFF;" parent="zOokp8QVIZ-v-QNMmdNp-128" vertex="1">
                    <mxGeometry width="190" height="20" relative="1" as="geometry">
                        <mxPoint y="70" as="offset"/>
                    </mxGeometry>
                </mxCell>
                <mxCell id="zOokp8QVIZ-v-QNMmdNp-133" value="Lương: 3200000" style="strokeWidth=1;shadow=0;dashed=0;align=center;html=1;shape=mxgraph.mockup.forms.anchor;fontSize=17;align=left;spacingLeft=5;resizeWidth=1;fillColor=#dae8fc;strokeColor=#6c8ebf;" parent="zOokp8QVIZ-v-QNMmdNp-128" vertex="1">
                    <mxGeometry width="184.93333333333334" height="35" relative="1" as="geometry">
                        <mxPoint y="90" as="offset"/>
                    </mxGeometry>
                </mxCell>
                <mxCell id="zOokp8QVIZ-v-QNMmdNp-134" value="" style="strokeWidth=1;shadow=0;dashed=0;align=center;html=1;shape=mxgraph.mockup.forms.rrect;rSize=0;strokeColor=#999999;fillColor=#ffffff;fontSize=17;fontColor=#FFFFFF;" parent="tP0cujVijr_YcvBs8D4t-1" vertex="1">
                    <mxGeometry x="560" y="350" width="180" height="130" as="geometry"/>
                </mxCell>
                <mxCell id="zOokp8QVIZ-v-QNMmdNp-135" value="Nguyễn&amp;nbsp; Văn&amp;nbsp; A" style="strokeWidth=1;shadow=0;dashed=0;align=center;html=1;shape=mxgraph.mockup.forms.rrect;rSize=0;strokeColor=#999999;fontColor=#008cff;fontSize=17;fillColor=#ffffff;resizeWidth=1;fontStyle=1" parent="zOokp8QVIZ-v-QNMmdNp-134" vertex="1">
                    <mxGeometry width="180" height="30" relative="1" as="geometry"/>
                </mxCell>
                <mxCell id="zOokp8QVIZ-v-QNMmdNp-136" value="Mã&amp;nbsp; nhân&amp;nbsp; viên: 0" style="strokeWidth=1;shadow=0;dashed=0;align=center;html=1;shape=mxgraph.mockup.forms.anchor;fontSize=15;fontColor=#666666;align=left;spacingLeft=5;resizeWidth=1;" parent="zOokp8QVIZ-v-QNMmdNp-134" vertex="1">
                    <mxGeometry width="180" height="20" relative="1" as="geometry">
                        <mxPoint y="30" as="offset"/>
                    </mxGeometry>
                </mxCell>
                <mxCell id="zOokp8QVIZ-v-QNMmdNp-137" value="Hệ&amp;nbsp; số&amp;nbsp; lương: 1" style="strokeWidth=1;shadow=0;dashed=0;align=center;html=1;shape=mxgraph.mockup.forms.anchor;fontSize=15;fontColor=#666666;align=left;spacingLeft=5;resizeWidth=1;" parent="zOokp8QVIZ-v-QNMmdNp-134" vertex="1">
                    <mxGeometry width="180" height="20" relative="1" as="geometry">
                        <mxPoint y="50" as="offset"/>
                    </mxGeometry>
                </mxCell>
                <mxCell id="zOokp8QVIZ-v-QNMmdNp-138" value="Số&amp;nbsp; giờ&amp;nbsp; làm&amp;nbsp; thêm:1" style="strokeWidth=1;shadow=0;dashed=0;align=center;html=1;shape=mxgraph.mockup.forms.rrect;rSize=0;fontSize=15;fontColor=#666666;align=left;spacingLeft=5;strokeColor=none;resizeWidth=1;fillColor=#FFFFFF;" parent="zOokp8QVIZ-v-QNMmdNp-134" vertex="1">
                    <mxGeometry width="180" height="20" relative="1" as="geometry">
                        <mxPoint y="70" as="offset"/>
                    </mxGeometry>
                </mxCell>
                <mxCell id="zOokp8QVIZ-v-QNMmdNp-139" value="Lương: 3200000" style="strokeWidth=1;shadow=0;dashed=0;align=center;html=1;shape=mxgraph.mockup.forms.anchor;fontSize=17;align=left;spacingLeft=5;resizeWidth=1;fillColor=#dae8fc;strokeColor=#6c8ebf;" parent="zOokp8QVIZ-v-QNMmdNp-134" vertex="1">
                    <mxGeometry width="175.2" height="35" relative="1" as="geometry">
                        <mxPoint y="90" as="offset"/>
                    </mxGeometry>
                </mxCell>
                <mxCell id="zOokp8QVIZ-v-QNMmdNp-140" value="" style="strokeWidth=1;shadow=0;dashed=0;align=center;html=1;shape=mxgraph.mockup.forms.rrect;rSize=0;strokeColor=#999999;fillColor=#ffffff;fontSize=17;fontColor=#FFFFFF;" parent="tP0cujVijr_YcvBs8D4t-1" vertex="1">
                    <mxGeometry x="100" y="490" width="180" height="130" as="geometry"/>
                </mxCell>
                <mxCell id="zOokp8QVIZ-v-QNMmdNp-141" value="Nguyễn&amp;nbsp; Văn&amp;nbsp; A" style="strokeWidth=1;shadow=0;dashed=0;align=center;html=1;shape=mxgraph.mockup.forms.rrect;rSize=0;strokeColor=#999999;fontColor=#008cff;fontSize=17;fillColor=#ffffff;resizeWidth=1;fontStyle=1" parent="zOokp8QVIZ-v-QNMmdNp-140" vertex="1">
                    <mxGeometry width="180" height="30" relative="1" as="geometry"/>
                </mxCell>
                <mxCell id="zOokp8QVIZ-v-QNMmdNp-142" value="Mã&amp;nbsp; nhân&amp;nbsp; viên: 0" style="strokeWidth=1;shadow=0;dashed=0;align=center;html=1;shape=mxgraph.mockup.forms.anchor;fontSize=15;fontColor=#666666;align=left;spacingLeft=5;resizeWidth=1;" parent="zOokp8QVIZ-v-QNMmdNp-140" vertex="1">
                    <mxGeometry width="180" height="20" relative="1" as="geometry">
                        <mxPoint y="30" as="offset"/>
                    </mxGeometry>
                </mxCell>
                <mxCell id="zOokp8QVIZ-v-QNMmdNp-143" value="Hệ&amp;nbsp; số&amp;nbsp; lương: 1" style="strokeWidth=1;shadow=0;dashed=0;align=center;html=1;shape=mxgraph.mockup.forms.anchor;fontSize=15;fontColor=#666666;align=left;spacingLeft=5;resizeWidth=1;" parent="zOokp8QVIZ-v-QNMmdNp-140" vertex="1">
                    <mxGeometry width="180" height="20" relative="1" as="geometry">
                        <mxPoint y="50" as="offset"/>
                    </mxGeometry>
                </mxCell>
                <mxCell id="zOokp8QVIZ-v-QNMmdNp-144" value="Số&amp;nbsp; giờ&amp;nbsp; làm&amp;nbsp; thêm:1" style="strokeWidth=1;shadow=0;dashed=0;align=center;html=1;shape=mxgraph.mockup.forms.rrect;rSize=0;fontSize=15;fontColor=#666666;align=left;spacingLeft=5;strokeColor=none;resizeWidth=1;fillColor=#FFFFFF;" parent="zOokp8QVIZ-v-QNMmdNp-140" vertex="1">
                    <mxGeometry width="180" height="20" relative="1" as="geometry">
                        <mxPoint y="70" as="offset"/>
                    </mxGeometry>
                </mxCell>
                <mxCell id="zOokp8QVIZ-v-QNMmdNp-145" value="Lương: 3200000" style="strokeWidth=1;shadow=0;dashed=0;align=center;html=1;shape=mxgraph.mockup.forms.anchor;fontSize=17;align=left;spacingLeft=5;resizeWidth=1;fillColor=#dae8fc;strokeColor=#6c8ebf;" parent="zOokp8QVIZ-v-QNMmdNp-140" vertex="1">
                    <mxGeometry width="175.2" height="35" relative="1" as="geometry">
                        <mxPoint y="90" as="offset"/>
                    </mxGeometry>
                </mxCell>
                <mxCell id="zOokp8QVIZ-v-QNMmdNp-146" value="" style="strokeWidth=1;shadow=0;dashed=0;align=center;html=1;shape=mxgraph.mockup.forms.rrect;rSize=0;strokeColor=#999999;fillColor=#ffffff;fontSize=17;fontColor=#FFFFFF;" parent="tP0cujVijr_YcvBs8D4t-1" vertex="1">
                    <mxGeometry x="320" y="490" width="190" height="130" as="geometry"/>
                </mxCell>
                <mxCell id="zOokp8QVIZ-v-QNMmdNp-147" value="Nguyễn&amp;nbsp; Văn&amp;nbsp; A" style="strokeWidth=1;shadow=0;dashed=0;align=center;html=1;shape=mxgraph.mockup.forms.rrect;rSize=0;strokeColor=#999999;fontColor=#008cff;fontSize=17;fillColor=#ffffff;resizeWidth=1;fontStyle=1" parent="zOokp8QVIZ-v-QNMmdNp-146" vertex="1">
                    <mxGeometry width="190" height="30" relative="1" as="geometry"/>
                </mxCell>
                <mxCell id="zOokp8QVIZ-v-QNMmdNp-148" value="Mã&amp;nbsp; nhân&amp;nbsp; viên: 0" style="strokeWidth=1;shadow=0;dashed=0;align=center;html=1;shape=mxgraph.mockup.forms.anchor;fontSize=15;fontColor=#666666;align=left;spacingLeft=5;resizeWidth=1;" parent="zOokp8QVIZ-v-QNMmdNp-146" vertex="1">
                    <mxGeometry width="190" height="20" relative="1" as="geometry">
                        <mxPoint y="30" as="offset"/>
                    </mxGeometry>
                </mxCell>
                <mxCell id="zOokp8QVIZ-v-QNMmdNp-149" value="Hệ&amp;nbsp; số&amp;nbsp; lương: 1" style="strokeWidth=1;shadow=0;dashed=0;align=center;html=1;shape=mxgraph.mockup.forms.anchor;fontSize=15;fontColor=#666666;align=left;spacingLeft=5;resizeWidth=1;" parent="zOokp8QVIZ-v-QNMmdNp-146" vertex="1">
                    <mxGeometry width="190" height="20" relative="1" as="geometry">
                        <mxPoint y="50" as="offset"/>
                    </mxGeometry>
                </mxCell>
                <mxCell id="zOokp8QVIZ-v-QNMmdNp-150" value="Số&amp;nbsp; giờ&amp;nbsp; làm&amp;nbsp; thêm:1" style="strokeWidth=1;shadow=0;dashed=0;align=center;html=1;shape=mxgraph.mockup.forms.rrect;rSize=0;fontSize=15;fontColor=#666666;align=left;spacingLeft=5;strokeColor=none;resizeWidth=1;fillColor=#FFFFFF;" parent="zOokp8QVIZ-v-QNMmdNp-146" vertex="1">
                    <mxGeometry width="190" height="20" relative="1" as="geometry">
                        <mxPoint y="70" as="offset"/>
                    </mxGeometry>
                </mxCell>
                <mxCell id="zOokp8QVIZ-v-QNMmdNp-151" value="Lương: 3200000" style="strokeWidth=1;shadow=0;dashed=0;align=center;html=1;shape=mxgraph.mockup.forms.anchor;fontSize=17;align=left;spacingLeft=5;resizeWidth=1;fillColor=#dae8fc;strokeColor=#6c8ebf;" parent="zOokp8QVIZ-v-QNMmdNp-146" vertex="1">
                    <mxGeometry width="184.93333333333334" height="35" relative="1" as="geometry">
                        <mxPoint y="90" as="offset"/>
                    </mxGeometry>
                </mxCell>
                <mxCell id="zOokp8QVIZ-v-QNMmdNp-152" value="" style="strokeWidth=1;shadow=0;dashed=0;align=center;html=1;shape=mxgraph.mockup.forms.rrect;rSize=0;strokeColor=#999999;fillColor=#ffffff;fontSize=17;fontColor=#FFFFFF;" parent="tP0cujVijr_YcvBs8D4t-1" vertex="1">
                    <mxGeometry x="559" y="490" width="180" height="130" as="geometry"/>
                </mxCell>
                <mxCell id="zOokp8QVIZ-v-QNMmdNp-153" value="Nguyễn&amp;nbsp; Văn&amp;nbsp; A" style="strokeWidth=1;shadow=0;dashed=0;align=center;html=1;shape=mxgraph.mockup.forms.rrect;rSize=0;strokeColor=#999999;fontColor=#008cff;fontSize=17;fillColor=#ffffff;resizeWidth=1;fontStyle=1" parent="zOokp8QVIZ-v-QNMmdNp-152" vertex="1">
                    <mxGeometry width="180" height="30" relative="1" as="geometry"/>
                </mxCell>
                <mxCell id="zOokp8QVIZ-v-QNMmdNp-154" value="Mã&amp;nbsp; nhân&amp;nbsp; viên: 0" style="strokeWidth=1;shadow=0;dashed=0;align=center;html=1;shape=mxgraph.mockup.forms.anchor;fontSize=15;fontColor=#666666;align=left;spacingLeft=5;resizeWidth=1;" parent="zOokp8QVIZ-v-QNMmdNp-152" vertex="1">
                    <mxGeometry width="180" height="20" relative="1" as="geometry">
                        <mxPoint y="30" as="offset"/>
                    </mxGeometry>
                </mxCell>
                <mxCell id="zOokp8QVIZ-v-QNMmdNp-155" value="Hệ&amp;nbsp; số&amp;nbsp; lương: 1" style="strokeWidth=1;shadow=0;dashed=0;align=center;html=1;shape=mxgraph.mockup.forms.anchor;fontSize=15;fontColor=#666666;align=left;spacingLeft=5;resizeWidth=1;" parent="zOokp8QVIZ-v-QNMmdNp-152" vertex="1">
                    <mxGeometry width="180" height="20" relative="1" as="geometry">
                        <mxPoint y="50" as="offset"/>
                    </mxGeometry>
                </mxCell>
                <mxCell id="zOokp8QVIZ-v-QNMmdNp-156" value="Số&amp;nbsp; giờ&amp;nbsp; làm&amp;nbsp; thêm:1" style="strokeWidth=1;shadow=0;dashed=0;align=center;html=1;shape=mxgraph.mockup.forms.rrect;rSize=0;fontSize=15;fontColor=#666666;align=left;spacingLeft=5;strokeColor=none;resizeWidth=1;fillColor=#FFFFFF;" parent="zOokp8QVIZ-v-QNMmdNp-152" vertex="1">
                    <mxGeometry width="180" height="20" relative="1" as="geometry">
                        <mxPoint y="70" as="offset"/>
                    </mxGeometry>
                </mxCell>
                <mxCell id="zOokp8QVIZ-v-QNMmdNp-157" value="Lương: 3200000" style="strokeWidth=1;shadow=0;dashed=0;align=center;html=1;shape=mxgraph.mockup.forms.anchor;fontSize=17;align=left;spacingLeft=5;resizeWidth=1;fillColor=#dae8fc;strokeColor=#6c8ebf;" parent="zOokp8QVIZ-v-QNMmdNp-152" vertex="1">
                    <mxGeometry width="175.2" height="35" relative="1" as="geometry">
                        <mxPoint y="90" as="offset"/>
                    </mxGeometry>
                </mxCell>
                <mxCell id="zOokp8QVIZ-v-QNMmdNp-158" value="" style="strokeWidth=1;shadow=0;dashed=0;align=center;html=1;shape=mxgraph.mockup.forms.rrect;rSize=0;strokeColor=#999999;fillColor=#ffffff;fontSize=17;fontColor=#FFFFFF;" parent="tP0cujVijr_YcvBs8D4t-1" vertex="1">
                    <mxGeometry x="100" y="630" width="180" height="130" as="geometry"/>
                </mxCell>
                <mxCell id="zOokp8QVIZ-v-QNMmdNp-159" value="Nguyễn&amp;nbsp; Văn&amp;nbsp; A" style="strokeWidth=1;shadow=0;dashed=0;align=center;html=1;shape=mxgraph.mockup.forms.rrect;rSize=0;strokeColor=#999999;fontColor=#008cff;fontSize=17;fillColor=#ffffff;resizeWidth=1;fontStyle=1" parent="zOokp8QVIZ-v-QNMmdNp-158" vertex="1">
                    <mxGeometry width="180" height="30" relative="1" as="geometry"/>
                </mxCell>
                <mxCell id="zOokp8QVIZ-v-QNMmdNp-160" value="Mã&amp;nbsp; nhân&amp;nbsp; viên: 0" style="strokeWidth=1;shadow=0;dashed=0;align=center;html=1;shape=mxgraph.mockup.forms.anchor;fontSize=15;fontColor=#666666;align=left;spacingLeft=5;resizeWidth=1;" parent="zOokp8QVIZ-v-QNMmdNp-158" vertex="1">
                    <mxGeometry width="180" height="20" relative="1" as="geometry">
                        <mxPoint y="30" as="offset"/>
                    </mxGeometry>
                </mxCell>
                <mxCell id="zOokp8QVIZ-v-QNMmdNp-161" value="Hệ&amp;nbsp; số&amp;nbsp; lương: 1" style="strokeWidth=1;shadow=0;dashed=0;align=center;html=1;shape=mxgraph.mockup.forms.anchor;fontSize=15;fontColor=#666666;align=left;spacingLeft=5;resizeWidth=1;" parent="zOokp8QVIZ-v-QNMmdNp-158" vertex="1">
                    <mxGeometry width="180" height="20" relative="1" as="geometry">
                        <mxPoint y="50" as="offset"/>
                    </mxGeometry>
                </mxCell>
                <mxCell id="zOokp8QVIZ-v-QNMmdNp-162" value="Số&amp;nbsp; giờ&amp;nbsp; làm&amp;nbsp; thêm:1" style="strokeWidth=1;shadow=0;dashed=0;align=center;html=1;shape=mxgraph.mockup.forms.rrect;rSize=0;fontSize=15;fontColor=#666666;align=left;spacingLeft=5;strokeColor=none;resizeWidth=1;fillColor=#FFFFFF;" parent="zOokp8QVIZ-v-QNMmdNp-158" vertex="1">
                    <mxGeometry width="180" height="20" relative="1" as="geometry">
                        <mxPoint y="70" as="offset"/>
                    </mxGeometry>
                </mxCell>
                <mxCell id="zOokp8QVIZ-v-QNMmdNp-163" value="Lương: 3200000" style="strokeWidth=1;shadow=0;dashed=0;align=center;html=1;shape=mxgraph.mockup.forms.anchor;fontSize=17;align=left;spacingLeft=5;resizeWidth=1;fillColor=#dae8fc;strokeColor=#6c8ebf;" parent="zOokp8QVIZ-v-QNMmdNp-158" vertex="1">
                    <mxGeometry width="175.2" height="35" relative="1" as="geometry">
                        <mxPoint y="90" as="offset"/>
                    </mxGeometry>
                </mxCell>
                <mxCell id="zOokp8QVIZ-v-QNMmdNp-164" value="" style="strokeWidth=1;shadow=0;dashed=0;align=center;html=1;shape=mxgraph.mockup.forms.rrect;rSize=0;strokeColor=#999999;fillColor=#ffffff;fontSize=17;fontColor=#FFFFFF;" parent="tP0cujVijr_YcvBs8D4t-1" vertex="1">
                    <mxGeometry x="320" y="630" width="190" height="130" as="geometry"/>
                </mxCell>
                <mxCell id="zOokp8QVIZ-v-QNMmdNp-165" value="Nguyễn&amp;nbsp; Văn&amp;nbsp; A" style="strokeWidth=1;shadow=0;dashed=0;align=center;html=1;shape=mxgraph.mockup.forms.rrect;rSize=0;strokeColor=#999999;fontColor=#008cff;fontSize=17;fillColor=#ffffff;resizeWidth=1;fontStyle=1" parent="zOokp8QVIZ-v-QNMmdNp-164" vertex="1">
                    <mxGeometry width="190" height="30" relative="1" as="geometry"/>
                </mxCell>
                <mxCell id="zOokp8QVIZ-v-QNMmdNp-166" value="Mã&amp;nbsp; nhân&amp;nbsp; viên: 0" style="strokeWidth=1;shadow=0;dashed=0;align=center;html=1;shape=mxgraph.mockup.forms.anchor;fontSize=15;fontColor=#666666;align=left;spacingLeft=5;resizeWidth=1;" parent="zOokp8QVIZ-v-QNMmdNp-164" vertex="1">
                    <mxGeometry width="190" height="20" relative="1" as="geometry">
                        <mxPoint y="30" as="offset"/>
                    </mxGeometry>
                </mxCell>
                <mxCell id="zOokp8QVIZ-v-QNMmdNp-167" value="Hệ&amp;nbsp; số&amp;nbsp; lương: 1" style="strokeWidth=1;shadow=0;dashed=0;align=center;html=1;shape=mxgraph.mockup.forms.anchor;fontSize=15;fontColor=#666666;align=left;spacingLeft=5;resizeWidth=1;" parent="zOokp8QVIZ-v-QNMmdNp-164" vertex="1">
                    <mxGeometry width="190" height="20" relative="1" as="geometry">
                        <mxPoint y="50" as="offset"/>
                    </mxGeometry>
                </mxCell>
                <mxCell id="zOokp8QVIZ-v-QNMmdNp-168" value="Số&amp;nbsp; giờ&amp;nbsp; làm&amp;nbsp; thêm:1" style="strokeWidth=1;shadow=0;dashed=0;align=center;html=1;shape=mxgraph.mockup.forms.rrect;rSize=0;fontSize=15;fontColor=#666666;align=left;spacingLeft=5;strokeColor=none;resizeWidth=1;fillColor=#FFFFFF;" parent="zOokp8QVIZ-v-QNMmdNp-164" vertex="1">
                    <mxGeometry width="190" height="20" relative="1" as="geometry">
                        <mxPoint y="70" as="offset"/>
                    </mxGeometry>
                </mxCell>
                <mxCell id="zOokp8QVIZ-v-QNMmdNp-169" value="Lương: 3200000" style="strokeWidth=1;shadow=0;dashed=0;align=center;html=1;shape=mxgraph.mockup.forms.anchor;fontSize=17;align=left;spacingLeft=5;resizeWidth=1;fillColor=#dae8fc;strokeColor=#6c8ebf;" parent="zOokp8QVIZ-v-QNMmdNp-164" vertex="1">
                    <mxGeometry width="184.93333333333334" height="35" relative="1" as="geometry">
                        <mxPoint y="90" as="offset"/>
                    </mxGeometry>
                </mxCell>
                <mxCell id="zOokp8QVIZ-v-QNMmdNp-170" value="" style="strokeWidth=1;shadow=0;dashed=0;align=center;html=1;shape=mxgraph.mockup.forms.rrect;rSize=0;strokeColor=#999999;fillColor=#ffffff;fontSize=17;fontColor=#FFFFFF;" parent="tP0cujVijr_YcvBs8D4t-1" vertex="1">
                    <mxGeometry x="559" y="630" width="180" height="130" as="geometry"/>
                </mxCell>
                <mxCell id="zOokp8QVIZ-v-QNMmdNp-171" value="Nguyễn&amp;nbsp; Văn&amp;nbsp; A" style="strokeWidth=1;shadow=0;dashed=0;align=center;html=1;shape=mxgraph.mockup.forms.rrect;rSize=0;strokeColor=#999999;fontColor=#008cff;fontSize=17;fillColor=#ffffff;resizeWidth=1;fontStyle=1" parent="zOokp8QVIZ-v-QNMmdNp-170" vertex="1">
                    <mxGeometry width="180" height="30" relative="1" as="geometry"/>
                </mxCell>
                <mxCell id="zOokp8QVIZ-v-QNMmdNp-172" value="Mã&amp;nbsp; nhân&amp;nbsp; viên: 0" style="strokeWidth=1;shadow=0;dashed=0;align=center;html=1;shape=mxgraph.mockup.forms.anchor;fontSize=15;fontColor=#666666;align=left;spacingLeft=5;resizeWidth=1;" parent="zOokp8QVIZ-v-QNMmdNp-170" vertex="1">
                    <mxGeometry width="180" height="20" relative="1" as="geometry">
                        <mxPoint y="30" as="offset"/>
                    </mxGeometry>
                </mxCell>
                <mxCell id="zOokp8QVIZ-v-QNMmdNp-173" value="Hệ&amp;nbsp; số&amp;nbsp; lương: 1" style="strokeWidth=1;shadow=0;dashed=0;align=center;html=1;shape=mxgraph.mockup.forms.anchor;fontSize=15;fontColor=#666666;align=left;spacingLeft=5;resizeWidth=1;" parent="zOokp8QVIZ-v-QNMmdNp-170" vertex="1">
                    <mxGeometry width="180" height="20" relative="1" as="geometry">
                        <mxPoint y="50" as="offset"/>
                    </mxGeometry>
                </mxCell>
                <mxCell id="zOokp8QVIZ-v-QNMmdNp-174" value="Số&amp;nbsp; giờ&amp;nbsp; làm&amp;nbsp; thêm:1" style="strokeWidth=1;shadow=0;dashed=0;align=center;html=1;shape=mxgraph.mockup.forms.rrect;rSize=0;fontSize=15;fontColor=#666666;align=left;spacingLeft=5;strokeColor=none;resizeWidth=1;fillColor=#FFFFFF;" parent="zOokp8QVIZ-v-QNMmdNp-170" vertex="1">
                    <mxGeometry width="180" height="20" relative="1" as="geometry">
                        <mxPoint y="70" as="offset"/>
                    </mxGeometry>
                </mxCell>
                <mxCell id="zOokp8QVIZ-v-QNMmdNp-175" value="Lương: 3200000" style="strokeWidth=1;shadow=0;dashed=0;align=center;html=1;shape=mxgraph.mockup.forms.anchor;fontSize=17;align=left;spacingLeft=5;resizeWidth=1;fillColor=#dae8fc;strokeColor=#6c8ebf;" parent="zOokp8QVIZ-v-QNMmdNp-170" vertex="1">
                    <mxGeometry width="175.2" height="35" relative="1" as="geometry">
                        <mxPoint y="90" as="offset"/>
                    </mxGeometry>
                </mxCell>
                <mxCell id="zOokp8QVIZ-v-QNMmdNp-178" value="" style="strokeWidth=1;shadow=0;dashed=0;align=center;html=1;shape=mxgraph.mockup.forms.rrect;rSize=0;strokeColor=#999999;fillColor=#ffffff;fontSize=17;fontColor=#FFFFFF;" parent="tP0cujVijr_YcvBs8D4t-1" vertex="1">
                    <mxGeometry x="100" y="770" width="180" height="130" as="geometry"/>
                </mxCell>
                <mxCell id="zOokp8QVIZ-v-QNMmdNp-179" value="Nguyễn&amp;nbsp; Văn&amp;nbsp; A" style="strokeWidth=1;shadow=0;dashed=0;align=center;html=1;shape=mxgraph.mockup.forms.rrect;rSize=0;strokeColor=#999999;fontColor=#008cff;fontSize=17;fillColor=#ffffff;resizeWidth=1;fontStyle=1" parent="zOokp8QVIZ-v-QNMmdNp-178" vertex="1">
                    <mxGeometry width="180" height="30" relative="1" as="geometry"/>
                </mxCell>
                <mxCell id="zOokp8QVIZ-v-QNMmdNp-180" value="Mã&amp;nbsp; nhân&amp;nbsp; viên: 0" style="strokeWidth=1;shadow=0;dashed=0;align=center;html=1;shape=mxgraph.mockup.forms.anchor;fontSize=15;fontColor=#666666;align=left;spacingLeft=5;resizeWidth=1;" parent="zOokp8QVIZ-v-QNMmdNp-178" vertex="1">
                    <mxGeometry width="180" height="20" relative="1" as="geometry">
                        <mxPoint y="30" as="offset"/>
                    </mxGeometry>
                </mxCell>
                <mxCell id="zOokp8QVIZ-v-QNMmdNp-181" value="Hệ&amp;nbsp; số&amp;nbsp; lương: 1" style="strokeWidth=1;shadow=0;dashed=0;align=center;html=1;shape=mxgraph.mockup.forms.anchor;fontSize=15;fontColor=#666666;align=left;spacingLeft=5;resizeWidth=1;" parent="zOokp8QVIZ-v-QNMmdNp-178" vertex="1">
                    <mxGeometry width="180" height="20" relative="1" as="geometry">
                        <mxPoint y="50" as="offset"/>
                    </mxGeometry>
                </mxCell>
                <mxCell id="zOokp8QVIZ-v-QNMmdNp-182" value="Số&amp;nbsp; giờ&amp;nbsp; làm&amp;nbsp; thêm:1" style="strokeWidth=1;shadow=0;dashed=0;align=center;html=1;shape=mxgraph.mockup.forms.rrect;rSize=0;fontSize=15;fontColor=#666666;align=left;spacingLeft=5;strokeColor=none;resizeWidth=1;fillColor=#FFFFFF;" parent="zOokp8QVIZ-v-QNMmdNp-178" vertex="1">
                    <mxGeometry width="180" height="20" relative="1" as="geometry">
                        <mxPoint y="70" as="offset"/>
                    </mxGeometry>
                </mxCell>
                <mxCell id="zOokp8QVIZ-v-QNMmdNp-183" value="Lương: 3200000" style="strokeWidth=1;shadow=0;dashed=0;align=center;html=1;shape=mxgraph.mockup.forms.anchor;fontSize=17;align=left;spacingLeft=5;resizeWidth=1;fillColor=#dae8fc;strokeColor=#6c8ebf;" parent="zOokp8QVIZ-v-QNMmdNp-178" vertex="1">
                    <mxGeometry width="175.2" height="35" relative="1" as="geometry">
                        <mxPoint y="90" as="offset"/>
                    </mxGeometry>
                </mxCell>
            </root>
        </mxGraphModel>
    </diagram>
</mxfile>